<svg width="200" height="60" viewBox="0 0 200 60" xmlns="http://www.w3.org/2000/svg">
  <path d="M40.42 49.44c1.9 0 2.05 1.67 2.06 3.57v.18c0 1.95-.14 3.89-2.17 3.89-.71 0-1.25-.22-1.65-.8v3.46h-1.5v-8.4c0-.25-.04-1.48-.07-1.72h1.49l.01.81a2.1 2.1 0 011.83-.99zm-18.24 0c2.43 0 2.62 1.51 2.62 3.7 0 2.41-.27 3.97-2.67 3.97-2.49 0-2.7-1.54-2.7-3.8 0-2.08.3-3.87 2.75-3.87zm35.25 0c2.43 0 2.62 1.51 2.62 3.7 0 2.41-.28 3.97-2.68 3.97-2.49 0-2.7-1.54-2.7-3.8 0-2.08.3-3.87 2.76-3.87zm-4.54-3v9.15c0 .2.04 1.15.06 1.36h-1.46l-.03-.82c-.42.66-.94.95-1.71.95-2 0-2.18-1.97-2.18-3.81 0-2 .23-3.83 2.1-3.83.8 0 1.3.26 1.7.86v-3.87h1.52zm10.46 3.18v4.8c0 .72.01 1.62.99 1.62.99 0 1.19-1 1.19-1.8v-4.62h1.51v5.95c0 .5.03.9.06 1.38h-1.53l-.01-.85c-.42.66-1 .98-1.79.98-1.38 0-1.93-.79-1.93-2.15v-5.31h1.5zm-17.57 0v7.33h-1.52v-7.33h1.52zm-30.5-3.19c2.12 0 3.14.67 3.14 2.91 0 2.73-1.38 3.05-3.43 3.05h-.9v4.56h-1.62V46.43h2.8zm17.97 3.01c1.65 0 1.84 1.31 1.84 2.49v5.02h-1.52v-4.96c0-.72-.01-1.49-.88-1.49-.85 0-1.1.92-1.1 1.65v4.8h-1.5v-4.98c0-.86-.05-1.47-.87-1.47-.93 0-1.12 1.17-1.12 1.8v4.65h-1.5v-6.21c0-.38-.02-.75-.07-1.12h1.52v.87a2.08 2.08 0 011.74-1.05c1.06 0 1.43.5 1.63 1.06.4-.55 1-1.06 1.83-1.06zM199.83 18.3v5.52h-13.76l-6.82 5.53h20.58v5.52H159.5l-6.81 5.52h47.14v5.52H133l-6.81 5.52h73.64v5.52h-99.48v-5.52h17.23l13.64-11.04h12.86l13.62-11.04h12.95l13.63-11.05h15.55zM57.4 50.47c-1.16 0-1.2 1.3-1.2 2.16v1.38c0 .86 0 2.08 1.17 2.08 1.07 0 1.14-1.05 1.15-1.9v-2c-.03-.87-.18-1.72-1.12-1.72zm-35.24 0c-1.11 0-1.19 1.19-1.2 2.05V54c0 .86-.01 2.08 1.17 2.08 1.07 0 1.14-1.05 1.15-1.9v-2c-.03-.87-.18-1.72-1.12-1.72zm28.07 0c-1.02 0-1.13 1.28-1.14 2.67v.17c0 1.32.12 2.75 1.12 2.75 1.12 0 1.18-1.43 1.18-2.7V53c-.02-1.33-.16-2.54-1.16-2.54zm-10.39 0c-1.13 0-1.2 1.5-1.2 2.75v.15c0 1.32.08 2.67 1.2 2.67 1.05 0 1.1-1.66 1.1-2.77v-.13c0-1.31-.04-2.67-1.1-2.67zm-24.91-2.82h-.83v3.5h.75c1.36 0 1.93-.37 1.93-1.8 0-1.35-.59-1.7-1.85-1.7zm30.88-1.09V48h-1.57v-1.43h1.57zM199.83 7.24v5.53h-17.34l-13.63 11.05h-12.94l-13.64 11.04h-12.86L115.8 45.9h-15.45v-5.52H114l6.82-5.52h-20.47v-5.52h40.15l6.82-5.52h-46.97v-5.53h66.72l6.82-5.52h-73.54V7.25h99.48zM34.65 31.68c2.14 0 2.97 1.03 2.97 3.04v.23H36v-.18c0-.9-.18-1.85-1.4-1.85-1.53 0-1.66 1.52-1.66 3.89v.24c0 3.01.11 4.33 1.6 4.33 1.35 0 1.54-1.01 1.54-2.06v-.23h1.63v.27c0 2.18-1 3.25-3.15 3.25-3.04 0-3.27-2.04-3.28-5.23v-.23c0-3.02.11-5.47 3.37-5.47zm7.14 3.22c2 0 2.4 1.25 2.47 2.8.02.4.02.82.02 1.23h-3.7v.58c0 1.23.18 2.03 1.13 2.03.91 0 1.07-.75 1.09-1.51h1.44c-.08 1.67-.76 2.53-2.53 2.53-2.35 0-2.62-1.56-2.64-3.47v-.18c0-1.98.22-4.01 2.72-4.01zm23.01 0c2 0 2.4 1.25 2.48 2.8l.01 1.23h-3.7v.58c0 1.23.18 2.03 1.13 2.03.91 0 1.07-.75 1.09-1.51h1.44c-.08 1.67-.76 2.53-2.53 2.53-2.35 0-2.62-1.56-2.64-3.47v-.18c0-1.98.22-4.01 2.72-4.01zm-9.67-1.76v1.93h1.22v1.03h-1.22v4.27c0 .74.13 1 .79 1 .16 0 .33-.02.5-.05v1.1c-.3.04-.6.05-.93.05-1.48 0-1.87-.49-1.87-1.92V36.1H52.6v-1.03h1.02v-1.3l1.51-.63zm-5.79 1.76c1.47 0 1.9.99 1.9 2.27v5.23h-1.5V37.6c0-.8-.02-1.65-.98-1.65-.9 0-1.22 1.04-1.22 1.78v4.68h-1.51v-5.95c0-.46-.02-.91-.06-1.38h1.52v.89c.34-.58 1-1.06 1.85-1.06zm11.72.03l.15.01v1.38a1.39 1.39 0 00-.28-.03c-1.16 0-1.61.73-1.61 1.8v4.31h-1.51v-6l-.06-1.33h1.45l.05.96c.42-.8 1.09-1.1 1.81-1.1zm-19.31 1c-.73 0-1.02.48-1.1 1.16-.05.3-.06.58-.06.92h2.2c0-.34 0-.64-.04-.98-.07-.6-.3-1.1-1-1.1zm23.01 0c-.73 0-1.02.48-1.1 1.16-.05.3-.06.58-.06.92h2.2c0-.34 0-.64-.04-.98-.07-.6-.3-1.1-1-1.1zM23.93 6.88c4.17 0 5.48 1.74 5.51 5.74h-3.28c0-1.67-.2-3.4-2.27-3.4-2.72 0-2.66 3.28-2.65 6.07v.2c0 3.73.1 6.4 2.56 6.4 2.16 0 2.4-1.88 2.42-3.62h3.29c-.04 2.82-.73 5.91-5.68 5.91-5.26 0-6.02-3.14-6.04-7.85v-.26c0-4.82.46-9.19 6.14-9.19zm14.4 0c4.04 0 5.26 1.77 5.26 5.61v5.91c0 1.8-.04 3.61.16 5.42H40.5l-.06-2a4.64 4.64 0 01-4.27 2.3c-2.99 0-4.17-2.17-4.17-4.9 0-5.31 3.94-5.7 8.24-5.7v-.8c0-1.6.06-3.6-2.07-3.6-1.44 0-2.26.94-2.26 2.36v.2h-3.38v-.24c0-3.5 2.79-4.56 5.8-4.56zm-34.85.4v16.54H.07V7.28h3.4zm12.34-.3v3.12a3.31 3.31 0 00-.62-.07c-2.63 0-3.65 1.64-3.65 4.07v9.72H8.14V10.26c0-.43-.1-2.56-.13-2.98h3.28l.1 2.16a4.39 4.39 0 014.43-2.46zm47.36-.1c3.71 0 4.14 2.95 4.14 5.61v11.33H63.9v-11.2c0-1.6-.03-3.34-2-3.34-1.9 0-2.46 2.06-2.46 3.7v10.84h-3.41V12.59c0-1.93-.1-3.31-1.94-3.31-2.1 0-2.53 2.62-2.53 4.03v10.5h-3.41v-14c0-.86-.04-1.68-.13-2.53h3.41v1.96a4.68 4.68 0 013.94-2.36c2.4 0 3.22 1.12 3.68 2.4.91-1.25 2.26-2.4 4.13-2.4zm-22.94 8.8h-.69c-2.36 0-4.07.69-4.07 3.25 0 1.38.4 2.89 2.03 2.89 2.27 0 2.73-2.5 2.73-4.24v-1.9zM3.54.38V3.6H0V.38h3.54z"/>
</svg>
