<svg width="56" height="112" viewBox="0 0 56 112" xmlns="http://www.w3.org/2000/svg">
  <path d="M30 110v2h-4v-2h4zm-4-6v2h4v-2h2v4h-6v2h-2v-6h2zm-18-1v2H2v-2h6zm22-1v2h-4v-2h4zm-1-25v2h2v2h-2v6h2v2h-4v-8h-2v-2h2v-2h2zm25 8v2h-4v-2h4zm-4-8v8h-2v-8h2zm6 0v8h-2v-8h2zM6 75v8H4v-8h2zm48 0v2h-4v-2h4zM6 71v2H4v-2h2zm24-9v2h-6v-2h6zm26-10v6h-6v2h6v2h-8v-6h6v-4h2zm-30 4v2h6v4h-2v-2h-6v-4h2zM2 52v8H0v-8h2zm8 0v8H8v-8h2zm22 2v2h-6v-2h6zm22-4v2h-6v-2h6zM8 50v2H2v-2h6zm22-13v2h-4v-2h4zm24-2v2h-4v-2h4zm-28-4v2h4v-2h2v4h-6v2h-2v-6h2zM6 33v2H2v-2h4zm44-6v8h-2v-8h2zm6 0v8h-2v-8h2zm-46 6v2H8v-2h2zm-8 0H0v-6h2v-2h6v8H6v-6H2v6zm28-4v2h-4v-2h4zm24-4v2h-4v-2h4zM31 0v2h-2v2h2v2h-2v8h-2V6h-2V4h2V0h4zm25 2v6h-6v2h6v2h-8V6h6V2h2zM10 2v8H8V2h2zM2 2v8H0V2h2zm4 0v2H4V2h2zm48-2v2h-6V0h6zM8 0v2H6V0h2zM4 0v2H2V0h2z"/>
</svg>
