<svg viewBox="0 0 24 24" xmlns="http://www.w3.org/2000/svg"><path d="m12 20h-7c-.552 0-1-.448-1-1v-14c0-.552.448-1 1-1h7c.553 0 1-.447 1-1s-.447-1-1-1h-7c-1.654 0-3 1.346-3 3v14c0 1.654 1.346 3 3 3h7c.553 0 1-.447 1-1s-.447-1-1-1zm9.923-8.382c-.051-.123-.125-.234-.217-.327l-3.999-3.999c-.391-.391-1.023-.391-1.414 0s-.391 1.023 0 1.414l2.293 2.294h-9.586c-.553 0-1 .447-1 1s.447 1 1 1h9.586l-2.293 2.293c-.391.391-.391 1.023 0 1.414.195.195.451.293.707.293s.512-.098.707-.293l3.999-3.999c.093-.092.166-.203.217-.326.101-.244.101-.52 0-.764z"/></svg>
