<svg width="24" height="24" viewBox="0 0 24 24" xmlns="http://www.w3.org/2000/svg">
  <path d="M14.3 2.45A5.49 5.49 0 0011 7.32v.2l-.27-.02a9.66 9.66 0 01-6.91-4.06 1 1 0 00-1.73.17c-.13.29-.32.79-.5 1.45-.6 2.2-.7 4.51.02 6.71l.1.28a9.64 9.64 0 004 4.89l.2.12-.11.06c-1.49.66-3.12.98-4.76.91C0 18-.4 19.4.52 19.91 10.56 25.49 22 19.39 22 7.5v-.25l-.02-.23.12-.14a8.74 8.74 0 001.87-3.64 1 1 0 00-1.54-1.06l-.33.23a9.9 9.9 0 01-1.77.9l-.2.08-.03-.03a5.47 5.47 0 00-5.57-1l-.22.08zm4.8 2.75a1 1 0 001.05.3l.4-.13.29-.1c-.2.25-.4.48-.62.7a1 1 0 00-.28.9c.04.22.06.43.06.65v.3c-.17 8.67-7.31 13.62-14.8 11.8l-.27-.06.19-.06c1.22-.36 2.38-.92 3.44-1.64a1 1 0 00-.15-1.74c-2.67-1.2-4.22-2.88-4.9-4.97l-.1-.33a9.59 9.59 0 01-.05-4.53l.05-.23.1.1a11.65 11.65 0 008.52 3.39 1 1 0 00.97-1v-1a3.49 3.49 0 016.1-2.35z"/>
</svg>
