<svg width="76" height="80" viewBox="0 0 76 80" xmlns="http://www.w3.org/2000/svg">
  <path d="M28 56v4h4v4h-4v12h4v4h-8V64h-4v-4h4v-4h4zm12-16v20h-4V40h4zM12 56v4H8v-4h4zm-4-4v4H4v-4h4zm8 0v4h-4v-4h4zM4 40v12H0V40h4zm16 0v12h-4V40h4zm36 0v4h-8v-4h8zm4-16v16h-4v-4h-8v-4h8v-8h4zM28 36v4h-8v-4h8zm12-4v4h-4v-4h4zm-20-8v4h8v-4h4v8H20v4h-4V24h4zm28 0v8h-4v-8h4zm8-4v4h-8v-4h8zm-28 0v4h-8v-4h8zm44-4v4H60v-4h12zM36 0v4h4v4h-4v12h-4V0h4zm24 4v12h-4V4h4zm16 0v12h-4V4h4zm-4-4v4H60V0h12zM44 0v4h-4V0h4z"/>
</svg>
