<svg version="1" xmlns="http://www.w3.org/2000/svg" width="933.333" height="933.333" viewBox="0 0 700.000000 700.000000"><path d="M297.5 87.5V175h35V70.5L350 70l17.5-.5v-34L385 35l17.6-.5V0h-35.1v35l-17.5-.2-17.5-.3V17.2l.1-17.2h-35.1v87.5zM542.9.2c-.1.2-.2 8.1-.3 17.5l-.1 17.3 52.5.2 52.5.3v51.3c0 28.3-.2 51.8-.6 52.3-.3.5-23.3 1-52.5 1.1l-51.9.3V175h105.1l-.1-17.3v-17.2l17.5-.5 17.5-.5V87.2l.1-52.2h-35.1V.5L595.3.2c-28.8-.1-52.4-.1-52.4 0zM507.4 87.5V140l17.6-.2 17.5-.3v-104l-17.5-.3-17.6-.2v52.5zM192.5 192.2v17.3l-17.5.5-17.5.5V315l17.5-.2 17.5-.3v-34l52.5-.5 52.5-.5V210h-35.1l.1 16.2c.1 9 0 16.9-.3 17.5-.3 1-8.2 1.3-34.7 1.3-26.5 0-34.4-.3-34.7-1.3-.2-.6-.4-8.4-.3-17.2v-16l35-.5 35-.5v-17.3l.1-17.2h-70.1v17.2zM437.5 192.2v17.3l35 .5 35 .5V245l-.1 34.5h-69.9v-69l-17.5-.3-17.5-.2v69.5l17.5.5 17.5.5v34l35 .5 35 .5v17l-.1 17-34.9.5-35 .5v17.2l-.1 17.3h70.2l-.1-17.3v-17.2l17.5-.5 17.5-.5v-139L525 210l-17.5-.5V175h-70.1l.1 17.2zM332.5 297.5V315h35v-34.5l-17.5-.3-17.5-.2v17.5zM192.5 332.2v17.3l-17.5.5-17.5.5-.1 51c-.1 28-.2 51.6-.3 52.2-.1 1-4.3 1.3-17.4 1.3h-17.3l.1 17.2v17.3l-17.5.5-17.5.5v17.2l-.1 17.3h35.2v-17.3l-.1-17.2 17.5-.5 17.5-.5v-17.3l-.1-17.2h35.2l-.1-52.5V350h70v-17.5l.1-17.5h-70.1v17.2zM17.9 350.2c-.1.2-.2 23.8-.3 52.6l-.1 52.2 17.5-.2 17.5-.3v-104l-17.2-.3c-9.5-.1-17.4-.1-17.4 0zM332.5 437.5V525h35V350.5l-17.5-.3-17.5-.2v87.5zM52.5 472.5V490l17.5-.2 17.5-.3V455H52.4l.1 17.5zM227.9 490.2c-.1.2-.3 7.5-.4 16.3-.1 8.8-.3 16.6-.4 17.2-.1 1-4.3 1.3-17.4 1.3h-17.3l.1 17.2v17.3l17.5.5 17.5.5v69.7l-.1 69.8h70.1v-34.5L280 665l-17.5-.5V560h35v-34.5L280 525l-17.5-.5v-17.3l.1-17.2h-17.3c-9.5 0-17.4.1-17.4.2z"/></svg>