<svg version="1" xmlns="http://www.w3.org/2000/svg" width="933.333" height="933.333" viewBox="0 0 700.000000 700.000000"><path d="M187.7.7c-.2.5-.3 3.3-.2 6.4l.2 5.5-6.4-.1-6.3-.2v50.5l6-.2c3.3 0 6.1-.5 6.3-1.1.2-.5.3-11.3.3-23.8-.1-12.6.2-23.4.6-23.9.3-.6 3.2-1.2 6.5-1.3l5.8-.2-.2 6.4-.2 6.3h12.8l.3-6.2.3-6.3h12v50l6.3.2 6.2.2-.2-25.2-.3-25.2h-5.2c-2.8 0-5.5-.4-6-.8-.4-.5-.8-3.2-.8-6V.5l-6.3-.3-6.2-.3v12.8l-5.3-.2c-7.3-.2-7.9-.7-7.5-7.1l.4-5.4h-6.2c-3.5 0-6.5.3-6.7.7zM344.2 10.7c0 6 0 11.6-.1 12.5-.1 1.5-1.1 1.8-6.3 1.8h-6.3l.1 5.3c0 2.9.3 5.8.7 6.4.3.5 2.9.9 5.7.8 3.8-.2 5.3.2 5.7 1.3.4.8.7 11.9.8 24.6.1 12.7.2 23.3.3 23.6.1.3 2.8.6 6 .5h5.7l.5-25 .5-25.1 4.5.1c7.4.2 7.7 0 7.4-5.8-.1-2.9-.2-5.5-.3-6 0-.4-2.8-.7-6.1-.7h-6V12.4l6 .1c6.5.2 6.1.6 6.4-6.5.3-6.1.4-6-12.9-6h-12.2l-.1 10.7zM475 6.3v6.2h17.9c9.9 0 18.3-.4 18.7-.8.5-.5.9-3.3.9-6.3l.1-5.4H475v6.3zM512.6 13c-.1.3-.2 5.8-.1 12.2 0 7.2-.4 11.9-1 12.1-.5.2-9 .3-18.7.2l-17.8-.1V75h50V62.4l-18.1.1c-11.4 0-18.3-.3-18.7-1-.4-.5-.7-3.4-.8-6.3l-.1-5.2H525V12.4h-6.1c-3.3 0-6.2.3-6.3.6zM187.7 157.4c-.2.6-.3 3.5-.2 6.3l.2 5.3H175v18.4c0 13.8.3 18.5 1.3 18.8 1 .4 8.1.3 10.5-.1.4 0 .8-8.3.8-18.4l.1-18.2 12.7-.3 12.7-.3-.1 10.3c-.1 5.7-.1 14.2-.1 18.9l.1 8.6 6.3-.2 6.3-.1-.2 6.3-.2 6.3h12.9l-.3-6.3-.3-6.2h-5c-2.8-.1-5.5-.4-6.1-.7-.6-.4-.9-9.1-.9-24 .1-12.8 0-23.8-.2-24.4-.5-1.5-37.1-1.5-37.6 0zM487.5 157.3c-.2.7-.3 2.8-.2 4.7.5 5.8-.6 6.8-6.5 6.7l-5.3-.1-.3 25.3-.2 25.2 6.2-.3 6.3-.3-.1-24.8c0-21.6.2-24.7 1.6-24.7.8-.1 6.5-.2 12.5-.3l11-.2v-6.2l.1-6.2h-12.4c-8.4.1-12.5.5-12.7 1.2zM513.1 169c-.4.3-.7 11.5-.6 25v24.5l-11.5.2c-6.3 0-12 .2-12.6.2-.8.1-1.1 2.2-1 6.2l.1 6.1 9.8-.1c5.3 0 11 0 12.5-.1 2.9 0 2.9 0 2.7-6l-.2-6 4.6-.1c2.5-.1 5.4-.1 6.4 0 1.6.2 1.7-1.6 1.7-24.8s-.1-25.1-1.7-25.2c-1 0-3.5-.1-5.6-.2-2.2-.1-4.2 0-4.6.3zM338 187.4v6.5l10.8-.1c5.9 0 11.5.1 12.5.1 1.4.1 1.7 1.1 1.7 6.1 0 6.8 1.3 6.2-12.5 6.2-13.9-.1-12.5.6-12.5-6.2 0-6.5.5-6.1-7.3-6.2-2.1 0-4.1.3-4.5.7-.4.3-.7 8.7-.7 18.6V231H338v-12h37.6l.1-12.5.1-12.5-2.7-.1c-1.4-.1-4.3-.1-6.3 0l-3.8.1v-13h-25v6.4z"/><path d="M187.6 206.9c-.1.3-.2 3.1-.2 6.1l.2 5.5 12.7.3 12.8.3-.3-6.3-.3-6.3-12.3-.1c-6.7 0-12.4.2-12.6.5zM338.4 232.5c-.3.7-.4 3.4-.2 6.1l.3 4.9 12.3.2 12.2.3v-12.9h-12.1c-8.9 0-12.1.4-12.5 1.4zM188.1 313.5c-.4.5-.7 3.4-.6 6.2l.2 5.3-4.6.1c-2.5.1-5.4.1-6.3 0-1.7-.2-1.8 1.6-1.8 24.8 0 13.8.3 25.1.8 25.2 1 .1 8.4.1 10.3 0 1.4-.1 1.6-3 1.6-24.9v-24.7l18.5-.1c16.3-.1 18.7.1 19 1.5.2.9.3 12.1.2 24.8-.1 26-.8 23.5 7.1 23.5 1.9 0 4 0 4.5-.1.6-.1 1-9.2 1-25.1v-25.1l-6.2.3-6.3.3v-6.3c.1-5.6-.1-6.2-2-6.2-1.1 0-9.4-.1-18.3-.3-10-.1-16.7.2-17.1.8zM475 318.7v6.3l18.8.2 18.7.3v24l-18.7.3-18.8.2v37.5l23.8-.1c13-.1 24.3-.2 25-.3.8-.1 1.2-2 1.2-6.1v-6h-37.7l.1-5.3c0-2.8.4-5.7.8-6.2.4-.7 6.8-1 17.5-1 9.2.1 17.4 0 18.1-.3.9-.3 1.2-5 1.2-18.8V325h-12.7l.2-5.5c.1-3-.1-5.9-.4-6.3-.3-.4-8.8-.8-18.8-.8H475v6.3zM338.4 337.9c-.2.2-.4 3-.4 6.2v5.8l-6.2.3-6.3.3v12.2l-.1 12.3H363v12.5h-37.5v6.3l-.1 6.2h37.5l.3-6.3.3-6.2h12v-25H338V350h37.9l-.2-6.2-.2-6.3h-18.3c-10.1 0-18.5.2-18.8.4zM200.2 450.3v6.4l6.2-.1 6.1-.1.3-6.3.3-6.2h-12.9v6.3zM487.8 468.5s-.2 2.7-.3 6l-.1 6-6.2.3-6.2.3v50l6.2-.3 6.3-.3-.1-24.7v-24.7l12.6.2 12.5.2V506l-.1 24.5-12.6.3-12.6.3.1 6.3.2 6.4 12.5-.2 12.5-.1v-6.3l-.1-6.2H525v-50h-12.7l.2-5.5c.1-3.1-.3-5.9-.8-6.2-.8-.5-9.7-.8-23.9-.8zM200.2 494c-.1 15 .3 25 .9 25.1.5 0 2.5.1 4.4.1 8.4 0 7.5 2.9 7.5-25.2v-25h-12.8v25zM344.6 481.8c-.2.4-.4 3.2-.3 6.2l.1 5.5-5.7.1c-3.1 0-5.9.3-6.2.6-.3.3-.7 3.1-.8 6.2l-.3 5.6 3.6.1c1.9.1 4.7.1 6.3.1 1.8 0 2.7.5 2.8 1.6 0 .9.1 12.2.1 24.9.1 20.5.3 23.3 1.7 23.4 1.9.1 21.2.1 22.6 0 1.4-.1 1.2-11-.2-11.9-.6-.4-3.4-.7-6.2-.6l-5.1.1v-37.8l4.3.2c8.5.3 8.2.5 8.2-6.1s.3-6.4-8.2-6.1l-4.3.2V481h-5.9c-3.3 0-6.2.3-6.5.8zM338.5 637.9c-.3.2-.5 3-.5 6.2v5.8l-6.2.3-6.3.3v18.2c-.1 10.1.3 18.4.7 18.4.4.1 3.2.2 6.1.3l5.2.1.3 6.2.3 6.3H363v-12.6h-12.5l-12.5.1V675h37.7l-.1-12.3-.1-12.2-6.2-.3-6.3-.3v-12.5h-12c-6.7 0-12.3.2-12.5.5zm24.3 18.3l-.3 6.3h-24l-.3-6.3-.3-6.2h25.2l-.3 6.2zM187.9 644.9c-.4 2.3-.5 9.8-.1 10.8.6 1.9 36.8 1.9 37.4 0 .4-1.1.4-4.8-.1-9.8-.1-1.5-2.2-1.7-18.6-1.6-10.2 0-18.5.3-18.6.6z"/></svg>