<svg width="175" height="104" viewBox="0 0 175 104" xmlns="http://www.w3.org/2000/svg"><path d="M61.584 44.662c3.25 0 5.608 2.44 5.608 5.804v1.748h-4.183v-1.56c0-.871-.456-1.81-1.456-1.81-.921 0-1.456.342-1.456 2.09V62.29c0 1.593.813 1.777 1.425 1.777.447 0 1.486-.17 1.486-1.746V60.73h4.184v1.873c0 3.114-2.487 5.648-5.545 5.648-2.771 0-5.731-1.508-5.731-5.742v-12.23c0-3.255 2.384-5.617 5.669-5.617zM73.58 55.25c-.263 0-1.065 0-1.065 1.299v1.299h2.13v-1.3c0-1.298-.801-1.298-1.065-1.298zm0-4.183c3.09 0 5.248 2.229 5.248 5.42v4.857h-6.313v1.659c0 .706.358 1.064 1.065 1.064.476 0 .976-.135 1.067-1.14l.042-.453h4.139v.5c0 1.426-.518 2.78-1.42 3.718-.981 1.019-2.306 1.558-3.828 1.558-2.04 0-3.714-.925-4.593-2.54-.441-.815-.654-1.946-.654-3.458v-5.207c0-1.498.213-2.622.653-3.437.88-1.615 2.555-2.541 4.594-2.541zm10.916.188v.743c.71-.631 1.547-.93 2.567-.93 1.743 0 3.777 1.144 3.777 4.368v12.629h-4.183V56.622c0-.625-.184-1.371-1.065-1.371-.577 0-1.096.129-1.096 1.683v11.132h-4.183v-16.81h4.183zm14.82 3.495H97.35v8.258c0 .99.095 1.06 1.465 1.06h.5v3.994h-1.81c-3.202 0-4.338-2.269-4.338-4.212v-9.1h-1.59v-3.496h1.59V46.45h4.183v4.805h1.965v3.496zm15.795 3.098v-1.3c0-1.298-.802-1.298-1.065-1.298-.264 0-1.065 0-1.065 1.299v1.299h2.13zm-14.549-6.593h4.182v1.117c.987-.757 2.075-1.305 3.712-1.305h.5V55.1c.11-.582.272-1.078.495-1.492.881-1.615 2.556-2.541 4.595-2.541 3.09 0 5.247 2.229 5.247 5.42v4.857h-6.312v1.659c0 .706.358 1.064 1.065 1.064.476 0 .976-.135 1.067-1.138l.041-.455h4.14v.5c0 1.426-.518 2.78-1.419 3.718-.983 1.019-2.307 1.558-3.829 1.558-2.04 0-3.714-.925-4.594-2.54-.44-.816-.653-1.946-.653-3.458v-5.207c0-.514.034-.97.085-1.4l-.613-.244a2.053 2.053 0 0 0-.782-.151c-.28 0-2.745.082-2.745 2.93v9.885h-4.182v-16.81zM87.594 80.76c0-2.3-.08-3.316-1.984-3.316h-1.146v6.567h1.022c2.027 0 2.108-.938 2.108-3.251zm2.423-5.595c1.16 1.227 1.572 2.683 1.572 5.563 0 1.989-.16 3.4-.979 4.733-1.042 1.713-2.689 2.546-5.032 2.546h-1.114v8.658h-4.182V73.45h5.266c1.994 0 3.331.514 4.47 1.716zm7.871 9.993c0-1.308-.802-1.308-1.065-1.308-.263 0-1.065 0-1.065 1.308v6.202c0 1.308.802 1.308 1.065 1.308.263 0 1.065 0 1.065-1.308v-6.202zm-1.065-5.49c2.04 0 3.714.925 4.594 2.538.44.818.654 1.946.654 3.451v5.205c0 1.504-.214 2.632-.653 3.447-.88 1.616-2.555 2.541-4.595 2.541-2.039 0-3.714-.925-4.594-2.538-.44-.818-.653-1.946-.653-3.45v-5.205c0-1.505.213-2.633.652-3.448.881-1.616 2.556-2.54 4.595-2.54zm19.484 0c1.973 0 3.964 1.351 3.964 4.37v12.628h-4.182V85.222c0-.626-.185-1.37-1.065-1.37-.578 0-1.097.128-1.097 1.681v11.133h-4.182V85.222c0-.626-.185-1.37-1.065-1.37-.578 0-1.096.128-1.096 1.681v11.133H103.4v-16.81h4.183v.743c.709-.63 1.547-.93 2.567-.93 1.095 0 2.076.457 2.869 1.332.71-.703 1.66-1.333 3.287-1.333zm11.908 5.834c0-1.651-.802-1.651-1.065-1.651-.81 0-1.096.789-1.096 1.464v6.14c0 .714.45 1.214 1.096 1.214.526 0 1.065-.163 1.065-1.37v-5.797zm.375-5.833c1.498 0 2.58.59 3.216 1.758.426.78.592 1.8.592 3.638v6.016c0 2.236-.08 3.299-.575 4.098-.718 1.142-1.755 1.672-3.264 1.672-.957 0-1.806-.302-2.505-.885v7.106h-4.183V79.856h4.183v.709c.607-.523 1.346-.896 2.536-.896zm5.418-2.037v-4.183h4.183v4.183h-4.183zm0 19.034V79.854h4.183v16.812h-4.183zm11.05-12.815c-.526 0-1.065.163-1.065 1.37v5.797c0 1.65.802 1.65 1.065 1.65.81 0 1.096-.788 1.096-1.463v-6.14c0-.714-.45-1.214-1.096-1.214zm1.096-3.298v-7.106h4.183v23.217h-4.183v-.71c-.607.524-1.346.897-2.536.897-1.498 0-2.58-.591-3.216-1.758-.426-.781-.592-1.801-.592-3.64V85.44c0-2.236.08-3.3.575-4.098.718-1.142 1.755-1.673 3.264-1.673.957 0 1.806.303 2.505.885zm11.825 4.605c0-1.308-.802-1.308-1.065-1.308-.263 0-1.065 0-1.065 1.308v6.202c0 1.308.802 1.308 1.066 1.308.263 0 1.064 0 1.064-1.308v-6.202zm-1.065-5.49c2.04 0 3.713.925 4.593 2.538.44.818.654 1.946.654 3.451v5.205c0 1.504-.214 2.632-.653 3.447-.882 1.616-2.555 2.541-4.594 2.541-2.04 0-3.713-.925-4.593-2.538-.441-.818-.654-1.946-.654-3.45v-5.205c0-1.505.213-2.633.651-3.448.882-1.616 2.556-2.54 4.596-2.54zm12.921 11.318V79.854h4.183v16.81h-4.183v-.744c-.71.63-1.548.93-2.567.93-1.743 0-3.777-1.143-3.777-4.367v-12.63h4.182v11.445c0 .625.184 1.37 1.065 1.37.578 0 1.097-.128 1.097-1.682zM.091 49.116v-1.979h44.388v1.898h-5.537c-1.452 1.368-3.268 2.383-4.72 3.751h-5.038l-4.675 3.663H19.38l-4.63 3.663H9.668l-4.721 3.751H0V62.01h4.267c.635-.485 1.543-1.147 2.269-1.872L0 60.174v-1.87h14.07l2.179-1.767-16.158.011V54.64h23.692c.59-.662 1.725-1.147 2.179-1.853L.09 52.76v-1.872h33.496c.68-.662 1.452-.97 2.224-1.765L.09 49.116zm34.766 5.524l4.675-3.751h4.947v1.897h-4.22c-.727.574-1.545 1.148-2.18 1.766l6.4-.037v1.934H30.454l-2.178 1.766 16.203.007v1.89H20.787c-.817.706-1.498 1.126-2.269 1.876H44.48v1.875H10.983l-2.269 1.766 35.72.007v1.89H0v-1.853h5.583l4.72-3.663h4.992c1.725-1.324 3.132-2.383 4.811-3.707 1.725-.044 3.585.044 5.174-.088l4.448-3.531 5.13-.044zm45.445-15.703v-28h6.437v28h-6.437zm0-32.5V0h6.437v6.437h-6.437zm16.883 15.98v16.52h-6.436V10.942h6.436v2.295c1.794-1.483 3.69-2.611 6.695-2.611h.5v6.993l-.685-.273a3.84 3.84 0 0 0-1.467-.282c-1.873 0-5.043 1.127-5.043 5.354zm16.488 16.833c-3.34 0-6.08-1.513-7.52-4.152-.723-1.344-1.074-3.215-1.074-5.721v-8.88c0-2.505.35-4.376 1.073-5.718 1.44-2.641 4.182-4.154 7.52-4.154 5.14 0 8.595 3.667 8.595 9.125v.5h-6.438v-.5c0-1-.224-1.73-.665-2.17-.345-.343-.841-.517-1.474-.517h-.015c-1.784 0-2.158 1.405-2.158 2.583v11.008c0 1.392.765 2.159 2.156 2.159 1.332 0 2.018-.71 2.158-2.234l.042-.454h6.394v.5c0 2.339-.848 4.554-2.327 6.075-1.61 1.668-3.776 2.55-6.267 2.55zm21.864-12.043a6.216 6.216 0 0 0-.99-.083c-2.496 0-3.76 1.126-3.76 3.346 0 1.834.89 2.973 2.321 2.973 1.544 0 2.43-1.084 2.43-2.973v-3.263zm-.75-5.259c.231.02.48.04.75.056v-2.272c0-2.393-1.265-2.67-2.216-2.67-1.083 0-2.306.705-2.596 2.278l-.075.41h-6.229l.036-.534c.168-2.509 1.067-4.637 2.6-6.154 1.592-1.594 3.76-2.438 6.264-2.438 5.256 0 8.653 3.534 8.653 9.002v19.305h-6.437v-1.963c-1.283 1.51-2.567 2.276-4.825 2.276-1.913 0-6.363-.75-6.363-7.705 0-5.967 1.52-9.665 9.08-9.665.43 0 .86.034 1.357.074zm32.826-11.323c3.193 0 6.416 2.197 6.416 7.104v21.208h-6.437V19.752c0-1.006-.282-2.693-2.163-2.693-1.328 0-2.212.548-2.212 3.226v18.652h-6.438V19.752c0-1.006-.28-2.693-2.162-2.693-1.328 0-2.213.548-2.213 3.226v18.652h-6.437V10.94h6.437v1.772c1.263-1.42 2.788-2.088 4.715-2.088 1.88 0 3.557.842 4.884 2.443 1.225-1.292 2.756-2.443 5.61-2.443z"/></svg>
