<svg enable-background="new 0 0 24 24" viewBox="0 0 24 24" xmlns="http://www.w3.org/2000/svg"><path d="m14.435 17.264-3.142 3.142c-2.123 2.123-5.576 2.123-7.699 0-1.028-1.029-1.594-2.395-1.594-3.849s.566-2.821 1.594-3.85l3.142-3.143c.391-.391.391-1.023 0-1.414s-1.023-.391-1.414 0l-3.142 3.143c-1.406 1.406-2.18 3.275-2.18 5.264s.774 3.857 2.18 5.263 3.276 2.18 5.264 2.18 3.857-.774 5.263-2.181l3.142-3.142c.391-.391.391-1.023 0-1.414s-1.023-.39-1.414.001zm2.272-9.971c-.391-.391-1.023-.391-1.414 0l-8 8c-.391.391-.391 1.023 0 1.414.195.195.451.293.707.293s.512-.098.707-.293l8-8c.391-.391.391-1.023 0-1.414zm5.113-5.112c-1.406-1.407-3.276-2.181-5.264-2.181s-3.857.774-5.263 2.181l-3.142 3.141c-.391.391-.391 1.023 0 1.414s1.023.391 1.414 0l3.142-3.142c2.123-2.123 5.576-2.123 7.699 0 1.028 1.029 1.594 2.395 1.594 3.849s-.566 2.821-1.594 3.85l-3.142 3.143c-.391.391-.391 1.023 0 1.414.195.195.451.293.707.293s.512-.098.707-.293l3.142-3.143c1.406-1.406 2.18-3.275 2.18-5.264s-.774-3.857-2.18-5.262z"/></svg>