<svg viewBox="0 0 24 24" xmlns="http://www.w3.org/2000/svg"><path d="M11.65 7.28l.06.85-.87-.1a14.1 14.1 0 0 1-8.26-4.06L1.44 2.83l-.3.84a5.05 5.05 0 0 0 1.08 5.18c.7.74.54.84-.66.4-.42-.14-.78-.24-.81-.19-.13.12.29 1.72.62 2.35a5.6 5.6 0 0 0 2.38 2.24l.85.4-1.01.02c-.97 0-1 .02-.9.38.34 1.14 1.71 2.35 3.24 2.88l1.08.36-.94.56a9.76 9.76 0 0 1-4.65 1.3c-.78.02-1.42.09-1.42.14 0 .17 2.12 1.15 3.35 1.54 3.7 1.14 8.08.65 11.37-1.3a15.22 15.22 0 0 0 5.78-6.79c.59-1.42 1.18-4 1.18-5.25 0-.8.05-.91 1.02-1.87.57-.56 1.11-1.18 1.21-1.35.18-.34.16-.34-.72-.04-1.48.53-1.69.46-.96-.33a5.1 5.1 0 0 0 1.18-1.87c0-.06-.26.03-.55.19-.32.17-1.01.44-1.53.6l-.94.3-.85-.59a7.06 7.06 0 0 0-1.47-.77 5.92 5.92 0 0 0-3.04.07 5.01 5.01 0 0 0-3.38 5.05z"/></svg>
