<svg width="200" height="60" viewBox="0 0 200 60" xmlns="http://www.w3.org/2000/svg">
  <path d="M49.33 36.56c3.47 0 3.62 3.13 3.62 6.62v.43c-.03 3.29-.38 6.42-3.83 6.42-1.25 0-2.2-.38-2.9-1.4v6.1h-2.67V39.9c0-.43-.05-2.59-.1-3.02h2.62l.03 1.43a3.72 3.72 0 013.23-1.74zm30 0c4.2 0 4.6 2.56 4.62 6.29v.23c0 4.26-.48 7-4.72 7-4.39 0-4.75-2.72-4.75-6.7 0-3.66.51-6.82 4.85-6.82zm-62.19 0c4.3 0 4.63 2.67 4.63 6.52 0 4.26-.5 7-4.73 7-4.39 0-4.75-2.72-4.75-6.7 0-3.66.52-6.82 4.85-6.82zm72.64.3v8.48c0 1.28.02 2.87 1.74 2.87 1.75 0 2.1-1.77 2.1-3.18v-8.16h2.68v10.5c0 .9.05 1.59.1 2.43h-2.7l-.02-1.49a3.5 3.5 0 01-3.16 1.72c-2.44 0-3.41-1.38-3.41-3.8v-9.36h2.67zm-18.45-5.62v16.18c0 .35.07 2.02.1 2.38h-2.57l-.05-1.43a3.3 3.3 0 01-3.03 1.66c-3.54 0-3.85-3.46-3.85-6.72 0-3.52.41-6.75 3.72-6.75 1.39 0 2.29.46 3 1.51v-6.83h2.68zM200 19.61v4.32h-10.76l-5.33 4.32H200v4.32h-31.54l-5.32 4.31H200v4.32h-52.26l-5.33 4.32H200v4.32h-77.8v-4.32h13.48l10.67-8.64h10.06l10.65-8.63h10.12l10.66-8.64H200zM4.95 31.24c3.75 0 5.55 1.19 5.55 5.14 0 4.73-2.35 5.37-5.85 5.39H2.87v8.03H0V31.24h4.95zm53.82 5.63V49.8H56.1V36.87h2.67zm-22.1-.31c2.83 0 3.22 2.19 3.24 4.22v9.02h-2.67v-8.75c0-1.26-.02-2.62-1.56-2.62-1.5 0-1.93 1.62-1.93 2.9v8.47h-2.67v-8.78c0-1.51-.08-2.59-1.51-2.59-1.65 0-1.98 2.06-1.98 3.16v8.21h-2.67V38.84c0-.66-.02-1.3-.1-1.97h2.67v1.54a3.66 3.66 0 013.08-1.85c1.87 0 2.51.87 2.87 1.87.72-.97 1.77-1.87 3.24-1.87zM17.1 38.38c-2 0-2.1 2.2-2.1 3.72v2.8c0 1.5.1 3.39 2.05 3.39 1.91 0 2.02-1.9 2.03-3.4v-3.05c-.01-1.68-.16-3.46-1.98-3.46zm62.2 0c-2.01 0-2.1 2.2-2.11 3.72v2.8c0 1.5.1 3.39 2.05 3.39 1.91 0 2.02-1.9 2.03-3.4V42c0-1.72-.1-3.62-1.98-3.62zm-12.66 0c-1.88 0-2 2.44-2 5 0 2.34.2 4.86 1.97 4.86 1.98 0 2.08-2.52 2.08-4.78 0-2.56-.13-5.08-2.05-5.08zm-18.33 0c-2.08 0-2.13 2.85-2.13 5.1v.42c.03 2.2.27 4.31 2.13 4.31 1.82 0 1.94-2.83 1.95-4.79v-.34c0-2.31-.07-4.7-1.95-4.7zM200 10.98v4.31h-13.56l-10.65 8.64h-10.12L155 32.57h-10.06L134.3 41.2H122.2V36.9h10.67l5.33-4.32h-16v-4.32h31.4l5.33-4.32H122.2v-4.31h52.17l5.33-4.32h-57.5v-4.32H200zM4.34 33.4H2.87v6.19h1.34c2.39 0 3.39-.67 3.39-3.19 0-2.38-1.03-3-3.26-3zm54.49-1.92v2.51h-2.78v-2.51h2.78zM39.27 5c3.77 0 5.24 1.82 5.24 5.36v.42h-2.85v-.34c0-1.56-.34-3.26-2.47-3.26-2.73 0-2.94 2.75-2.95 7v.3c0 5.3.2 7.64 2.85 7.64 2.36 0 2.7-1.8 2.7-3.64v-.42h2.87v.5c0 3.84-1.77 5.72-5.54 5.72-5.31 0-5.78-3.53-5.8-9.05v-1.1c.01-5.1.39-9.13 5.95-9.13zm53.2 5.67c3.52 0 4.24 2.21 4.37 4.96.02.69.02 1.43.02 2.15h-6.52v1.03c0 2.18.31 3.6 1.98 3.6 1.62 0 1.9-1.34 1.92-2.68h2.55c-.13 2.96-1.34 4.47-4.47 4.47-4.18 0-4.63-2.81-4.65-6.23v-.21c0-3.5.39-7.09 4.8-7.09zm-40.6 0c3.52 0 4.24 2.21 4.36 4.96.03.69.03 1.43.03 2.15h-6.52v1.03c0 2.18.3 3.6 1.98 3.6 1.61 0 1.9-1.34 1.92-2.68h2.54c-.13 2.96-1.33 4.47-4.46 4.47-4.18 0-4.63-2.81-4.65-6.23v-.21c0-3.5.39-7.09 4.8-7.09zm23.54-3.1v3.41h2.15v1.82h-2.15v7.52c0 1.31.23 1.78 1.38 1.78.28 0 .6-.03.9-.08v1.92c-.54.08-1.08.1-1.64.1-2.62 0-3.31-.87-3.31-3.38V12.8h-1.8v-1.82h1.8V8.7l2.67-1.13zm10.47 3.15c.05 0 .15 0 .25.03v2.44c-.1-.03-.33-.05-.48-.05-2.06 0-2.85 1.28-2.85 3.18v7.6h-2.67v-10.6c0-.34-.08-2-.1-2.34h2.56l.08 1.7a3.43 3.43 0 013.2-1.96zm-20.69-.05c2.6 0 3.36 1.75 3.36 4v9.25h-2.67v-8.5c0-1.41-.02-2.9-1.72-2.9-1.59 0-2.15 1.82-2.15 3.13v8.27h-2.67v-10.5c0-.82-.03-1.62-.1-2.44h2.7v1.57a3.73 3.73 0 013.25-1.88zm27.2 1.83c-1.28 0-1.8.84-1.94 2.05-.08.54-.1 1.03-.1 1.62h3.87c0-.6.02-1.13-.05-1.72-.13-1.08-.54-1.95-1.77-1.95zm-40.6 0c-1.28 0-1.8.84-1.95 2.05-.07.54-.1 1.03-.1 1.62h3.88c0-.6.02-1.13-.06-1.72-.12-1.08-.53-1.95-1.77-1.95z"/>
</svg>
