<?xml version="1.0" encoding="utf-8"?>
<!-- Generator: Adobe Illustrator 25.2.3, SVG Export Plug-In . SVG Version: 6.00 Build 0)  -->
<svg version="1.1" id="Calque_1" xmlns="http://www.w3.org/2000/svg" xmlns:xlink="http://www.w3.org/1999/xlink" x="0px" y="0px"
	 viewBox="0 0 56 112" style="enable-background:new 0 0 56 112;" xml:space="preserve">
<style type="text/css">
	.st0{fill:none;}
	.st1{font-family:'RiskofRainFont';}
	.st2{font-size:14px;}
</style>
<path d="M30,110v2h-4v-2H30z M26,104v2h4v-2h2v4h-6v2h-2v-6H26z M8,103v2H2v-2H8z M30,102v2h-4v-2H30z M29,77v2h2v2h-2v6h2v2h-4v-8
	h-2v-2h2v-2H29z M6,75v8H4v-8H6z M6,71v2H4v-2H6z M30,62v2h-6v-2H30z M56,52v6h-6v2h6v2h-8v-6h6v-4H56z M26,56v2h6v4h-2v-2h-6v-4H26
	z M2,52v8H0v-8H2z M10,52v8H8v-8H10z M32,54v2h-6v-2H32z M54,50v2h-6v-2H54z M8,50v2H2v-2H8z M30,37v2h-4v-2H30z M54,35v2h-4v-2H54z
	 M26,31v2h4v-2h2v4h-6v2h-2v-6H26z M6,33v2H2v-2H6z M50,27v8h-2v-8H50z M56,27v8h-2v-8H56z M10,33v2H8v-2H10z M2,33H0v-6h2v-2h6v8H6
	v-6H2V33z M30,29v2h-4v-2H30z M54,25v2h-4v-2H54z M31,0v2h-2v2h2v2h-2v8h-2V6h-2V4h2V0H31z M56,2v6h-6v2h6v2h-8V6h6V2H56z M10,2v8H8
	V2H10z M2,2v8H0V2H2z M6,2v2H4V2H6z M54,0v2h-6V0H54z M8,0v2H6V0H8z M4,0v2H2V0H4z"/>
<rect x="49.5" y="76.3" class="st0" width="13" height="18.3"/>
<text transform="matrix(1 0 0 1 49.5242 88.5022)" class="st1 st2">1</text>
</svg>
