<svg width="24" height="24" viewBox="0 0 24 24" xmlns="http://www.w3.org/2000/svg">
  <path d="M23 3a1 1 0 011 1v5a1 1 0 01-1 1 2 2 0 100 4h.12a1 1 0 01.88 1v5a1 1 0 01-1 1H1a1 1 0 01-1-1v-5a1 1 0 011-1h.15A2 2 0 001 10a1 1 0 01-1-1V4a1 1 0 011-1zm-1 2H2v3.13l.16.04A4 4 0 015 11.8v.2a4 4 0 01-2.84 3.83l-.16.04V19h20v-3.13l-.16-.04A4 4 0 0119 12.2V12a4 4 0 012.84-3.83l.16-.04V5zm-10 9.99a1 1 0 011 .88V16a1 1 0 01-2 .12v-.13a1 1 0 011-1zM12 11a1 1 0 011 .88v.13a1 1 0 01-2 .12V12a1 1 0 011-1zm0-4a1 1 0 011 .88v.13a1 1 0 01-2 .12V8a1 1 0 011-1z"/>
</svg>
