<svg width="24" height="24" viewBox="0 0 24 24" xmlns="http://www.w3.org/2000/svg">
  <path d="M11.66 3h.68l1.34.01a121 121 0 012.8.07l.71.03c1.74.09 2.99.2 3.66.39 1.3.34 2.31 1.37 2.66 2.66.16.61.27 1.42.36 2.39.05.7.1 1.45.11 2.2l.02 1v.28a45.43 45.43 0 01-.13 2.92c-.09.97-.2 1.78-.36 2.39A3.76 3.76 0 0120.86 20c-.74.2-2.17.33-4.16.4l-.36.02c-1 .04-2.03.06-3 .07h-2.68c-.77 0-1.59-.02-2.4-.05l-.6-.02c-2.18-.08-3.73-.2-4.52-.42A3.76 3.76 0 01.5 17.34c-.2-.76-.33-1.8-.4-3.08a44.2 44.2 0 01-.08-2v-1.4l.07-1.62C.16 7.97.3 6.92.5 6.16A3.76 3.76 0 013.14 3.5c.77-.2 2.27-.34 4.39-.42l2.8-.07h1.33zm.67 2h-.66l-1.06.01c-3.14.04-6.01.17-6.95.42-.6.16-1.07.64-1.23 1.25-.16.59-.28 1.54-.35 2.69a41.9 41.9 0 00-.07 1.54v1.68c.01.49.04 1.01.07 1.54l.04.6c.08.89.18 1.6.3 2.1.17.6.64 1.08 1.24 1.24.58.16 2.06.28 4.07.35.99.04 2 .06 2.94.07h1.56c1.05 0 2.25-.01 3.44-.05l.6-.02c2-.07 3.5-.2 4.07-.35.6-.16 1.07-.64 1.23-1.25.13-.47.23-1.17.3-2.04.06-.66.1-1.37.11-2.08l.02-.95v-.6a48.92 48.92 0 00-.13-2.43c-.07-.87-.17-1.57-.3-2.04a1.76 1.76 0 00-1.24-1.25c-.93-.25-3.8-.38-6.94-.42h-1.06zm-2.19 2.56l.1.05L16 10.88a1 1 0 01.12 1.67l-.12.07-5.75 3.27a1 1 0 01-1.48-.76l-.01-.1V8.47a1 1 0 011.28-.96l.11.04zm.6 2.64v3.1l2.74-1.55-2.73-1.55z"/>
</svg>
