<svg width="200" height="140" viewBox="0 0 200 140" xmlns="http://www.w3.org/2000/svg">
  <path d="M13.82 130v4.52c.18-.43.45-.76.8-.99.34-.23.72-.35 1.15-.35.7 0 1.28.3 1.72.88.44.58.66 1.42.66 2.52 0 .73-.13 1.35-.38 1.86-.25.5-.58.89-1 1.15-.43.26-.9.39-1.41.39a2.23 2.23 0 01-1.66-.73l-.88.75-.22-.09c.06-.2.1-.45.1-.72v-7.69c0-.38-.08-.66-.22-.83-.14-.18-.39-.27-.74-.27v-.26c.27.02.52.04.77.04.53 0 .96-.06 1.3-.18zm13.53 1.28v2.09h1.85v.25h-1.85v4.84c0 .38.07.65.2.81.14.17.34.25.6.25.26 0 .48-.1.66-.3.19-.22.34-.56.47-1.03l.25.06c-.21 1.15-.75 1.73-1.63 1.73-.28 0-.52-.04-.7-.1a1.33 1.33 0 01-.49-.32c-.18-.18-.31-.4-.38-.67s-.1-.63-.1-1.08v-4.2h-1.2v-.24h1.2v-1.92a3.9 3.9 0 001.12-.17zm33.1 0v2.09h1.85v.25h-1.85v4.84c0 .38.07.65.2.81.14.17.34.25.6.25.26 0 .48-.1.67-.3.18-.22.33-.56.46-1.03l.25.06c-.21 1.15-.75 1.73-1.63 1.73-.28 0-.52-.04-.7-.1a1.33 1.33 0 01-.49-.32c-.18-.18-.3-.4-.38-.67-.07-.27-.1-.63-.1-1.08v-4.2h-1.2v-.24h1.2v-1.92a3.9 3.9 0 001.12-.17zm11.02-1.29v8.45c0 .38.07.66.21.83.14.18.39.27.74.27v.26a8.02 8.02 0 00-.78-.04c-.52 0-.96.06-1.3.18v-1.12c-.15.38-.37.67-.68.86-.3.2-.66.3-1.1.3-.8 0-1.43-.3-1.88-.87-.46-.57-.68-1.42-.67-2.53 0-.72.13-1.34.38-1.85.26-.52.6-.9 1.03-1.16.43-.26.9-.39 1.42-.39.32 0 .6.06.87.18.26.12.47.3.63.56v-2.43c0-.38-.07-.66-.21-.84-.14-.17-.39-.26-.74-.26v-.26l.78.03c.52 0 .96-.05 1.3-.17zm21.57 3.19c.85 0 1.54.28 2.06.85.52.56.78 1.41.78 2.55 0 1.15-.26 2-.78 2.56s-1.21.84-2.06.84c-.85 0-1.54-.28-2.06-.84-.52-.56-.78-1.41-.78-2.56 0-1.14.26-2 .78-2.55.52-.57 1.2-.85 2.06-.85zm60.58 0c.85 0 1.54.28 2.06.85.52.56.78 1.41.78 2.55 0 1.15-.26 2-.78 2.56s-1.21.84-2.06.84c-.85 0-1.54-.28-2.06-.84-.52-.56-.78-1.41-.78-2.56 0-1.14.26-2 .78-2.55.52-.57 1.2-.85 2.06-.85zm21.58 0c.75 0 1.33.23 1.73.68.4.46.61 1.15.61 2.07h-3.92c-.02.24-.03.5-.03.8 0 .55.09 1.03.26 1.44.18.41.42.73.72.95.3.22.6.33.93.33.4 0 .76-.1 1.07-.29.3-.19.56-.51.77-.96l.25.1c-.15.46-.43.85-.84 1.18-.42.33-.92.5-1.5.5-.6 0-1.1-.14-1.54-.41a2.62 2.62 0 01-1-1.14 3.94 3.94 0 01-.34-1.7c0-.72.12-1.35.35-1.89a2.6 2.6 0 012.48-1.66zm-127.53 0c.75 0 1.33.23 1.73.68.4.46.61 1.15.61 2.07h-3.92c-.02.24-.04.5-.04.8 0 .55.1 1.03.27 1.44.18.41.42.73.72.95.3.22.6.33.93.33.4 0 .75-.1 1.06-.29.31-.19.57-.51.78-.96l.25.1c-.15.46-.43.85-.85 1.18-.4.33-.9.5-1.5.5a2.62 2.62 0 01-2.54-1.55 3.94 3.94 0 01-.33-1.7c0-.72.12-1.35.35-1.89a2.6 2.6 0 012.48-1.66zm-12 0a2.17 2.17 0 011.37.46c.1.07.17.1.23.1.15 0 .24-.18.27-.55h.29c-.04.41-.05 1.12-.05 2.13h-.29c-.1-.55-.27-1-.53-1.36-.26-.36-.65-.54-1.17-.54-.3 0-.55.08-.74.25a.9.9 0 00-.29.71c0 .3.1.54.3.73.2.2.52.44.97.71l.33.21c.39.25.7.47.93.67.23.19.42.4.57.66.15.25.22.54.22.86 0 .55-.2.98-.62 1.3-.41.3-.92.46-1.52.46-.38 0-.7-.06-1-.18a2.6 2.6 0 01-.5-.34l-.12-.05c-.06 0-.1.04-.15.13-.05.08-.08.2-.1.35h-.3c.04-.48.05-1.31.05-2.5h.29c.1.78.26 1.37.5 1.75.24.4.66.58 1.24.58.3 0 .55-.1.78-.28.22-.2.33-.5.33-.9 0-.33-.1-.6-.33-.83a6.3 6.3 0 00-1.08-.81c-.4-.26-.72-.47-.95-.64-.22-.17-.4-.37-.55-.61a1.58 1.58 0 01-.23-.86c0-.52.18-.92.53-1.2.35-.27.8-.41 1.33-.41zm92.7.04v5.23c0 .38.07.66.2.84.15.17.4.26.75.26v.26a8.2 8.2 0 00-.78-.04c-.52 0-.96.06-1.3.18v-1.48c-.2.52-.48.9-.85 1.14-.37.24-.77.37-1.2.37-.57 0-1-.16-1.3-.48a1.44 1.44 0 01-.32-.64c-.07-.26-.1-.6-.1-1v-3.14c0-.38-.07-.66-.21-.84-.14-.17-.39-.26-.74-.26v-.26l.78.03c.52 0 .96-.05 1.3-.17v4.92c0 .31.02.57.05.77.04.2.13.35.27.48.14.12.35.18.63.18.32 0 .6-.1.86-.3.26-.2.46-.47.61-.82.15-.34.22-.72.22-1.14v-2.59c0-.38-.07-.66-.21-.84-.14-.17-.4-.26-.74-.26v-.26l.77.03c.53 0 .96-.05 1.3-.17zm-15.21-.04c.75 0 1.32.23 1.73.68.4.46.6 1.15.6 2.07h-3.91c-.03.24-.04.5-.04.8 0 .55.1 1.03.27 1.44.18.41.42.73.71.95.3.22.61.33.94.33.4 0 .75-.1 1.06-.29.31-.19.57-.51.78-.96l.25.1c-.15.46-.43.85-.85 1.18-.41.33-.9.5-1.5.5a2.62 2.62 0 01-2.53-1.55 3.94 3.94 0 01-.34-1.7c0-.72.11-1.35.35-1.89a2.6 2.6 0 012.48-1.66zm57.42-3.19v8.45c0 .38.07.66.21.83.15.18.4.27.74.27v.26a8.03 8.03 0 00-.77-.04c-.53 0-.96.06-1.3.18v-1.12c-.16.38-.38.67-.68.86-.3.2-.67.3-1.1.3-.8 0-1.43-.3-1.89-.87-.45-.57-.68-1.42-.67-2.53 0-.72.13-1.34.38-1.85.26-.52.6-.9 1.03-1.16.43-.26.9-.39 1.42-.39.32 0 .61.06.87.18.27.12.48.3.63.56v-2.43c0-.38-.07-.66-.2-.84-.15-.17-.4-.26-.75-.26v-.26l.78.03c.53 0 .96-.05 1.3-.17zm-68.07 3.23v5.23c0 .38.08.66.22.84.14.17.39.26.74.26v.26a8.19 8.19 0 00-.78-.04c-.53 0-.96.06-1.3.18v-1.48c-.2.52-.49.9-.85 1.14-.37.24-.77.37-1.2.37-.57 0-1-.16-1.3-.48a1.44 1.44 0 01-.33-.64 4.4 4.4 0 01-.09-1v-3.14c0-.38-.07-.66-.21-.84-.14-.17-.4-.26-.74-.26v-.26l.77.03c.53 0 .96-.05 1.3-.17v4.92c0 .31.02.57.06.77.04.2.13.35.27.48.13.12.34.18.63.18.31 0 .6-.1.86-.3.26-.2.46-.47.6-.82.15-.34.23-.72.23-1.14v-2.59c0-.38-.07-.66-.21-.84-.15-.17-.4-.26-.74-.26v-.26c.26.02.51.03.77.03.53 0 .96-.05 1.3-.17zm78.22-.04a2.18 2.18 0 011.37.46c.1.07.17.1.22.1.15 0 .25-.18.28-.55h.29c-.04.41-.05 1.12-.05 2.13h-.29c-.1-.55-.27-1-.53-1.36-.27-.36-.66-.54-1.17-.54-.3 0-.55.08-.74.25a.9.9 0 00-.29.71c0 .3.1.54.3.73.2.2.52.44.97.71l.33.21c.39.25.7.47.93.67.23.19.42.4.57.66.14.25.22.54.22.86 0 .55-.2.98-.62 1.3-.41.3-.92.46-1.52.46-.38 0-.7-.06-1-.18a2.6 2.6 0 01-.5-.34l-.12-.05c-.06 0-.1.04-.15.13-.05.08-.09.2-.11.35h-.29c.03-.48.05-1.31.05-2.5h.29c.1.78.26 1.37.5 1.75.24.4.66.58 1.24.58.3 0 .55-.1.78-.28.22-.2.33-.5.33-.9 0-.33-.1-.6-.33-.83-.22-.23-.58-.5-1.08-.81-.41-.26-.73-.47-.95-.64-.22-.17-.4-.37-.55-.61a1.58 1.58 0 01-.23-.86c0-.52.18-.92.53-1.2.35-.27.79-.41 1.32-.41zm-139.46 0a2.18 2.18 0 011.37.46c.09.07.16.1.22.1.15 0 .24-.18.28-.55h.28c-.03.41-.05 1.12-.05 2.13h-.28c-.1-.55-.27-1-.54-1.36-.26-.36-.65-.54-1.17-.54-.3 0-.54.08-.73.25a.9.9 0 00-.3.71c0 .3.1.54.3.73.2.2.53.44.97.71l.34.21c.38.25.7.47.93.67.23.19.42.4.57.66.14.25.21.54.21.86 0 .55-.2.98-.61 1.3-.42.3-.92.46-1.53.46-.37 0-.7-.06-.98-.18-.19-.1-.36-.2-.52-.34l-.11-.05c-.06 0-.11.04-.16.13-.04.08-.08.2-.1.35h-.3c.04-.48.06-1.31.06-2.5h.29c.09.78.25 1.37.5 1.75.24.4.65.58 1.24.58.29 0 .55-.1.77-.28.23-.2.34-.5.34-.9 0-.33-.11-.6-.33-.83a6.3 6.3 0 00-1.08-.81c-.41-.26-.73-.47-.95-.64-.22-.17-.4-.37-.56-.61a1.58 1.58 0 01-.22-.86c0-.52.17-.92.52-1.2.36-.27.8-.41 1.33-.41zm34.82 0c.75 0 1.33.23 1.73.68.4.46.6 1.15.6 2.07h-3.91c-.03.24-.04.5-.04.8 0 .55.1 1.03.27 1.44.18.41.42.73.71.95.3.22.61.33.94.33.4 0 .75-.1 1.06-.29.31-.19.57-.51.78-.96l.25.1c-.15.46-.43.85-.85 1.18-.41.33-.9.5-1.5.5a2.62 2.62 0 01-2.54-1.55 3.94 3.94 0 01-.33-1.7c0-.72.11-1.35.35-1.89a2.6 2.6 0 012.48-1.66zm43.13 0c.65 0 1.14.16 1.47.46.21.2.35.43.42.7.07.27.1.63.1 1.07v3.48c0 .2.04.35.1.45.05.09.15.13.3.13.1 0 .19-.02.28-.06.09-.05.18-.11.28-.2l.14.21c-.22.17-.4.29-.56.36-.15.07-.35.1-.58.1-.4 0-.68-.1-.84-.3-.16-.2-.24-.46-.24-.8-.25.41-.54.7-.86.86-.33.17-.7.25-1.1.25-.53 0-.92-.13-1.17-.4a1.5 1.5 0 01-.39-1.1c0-.37.1-.68.31-.92.2-.24.45-.43.73-.57a9 9 0 011.1-.45c.47-.16.82-.3 1.04-.44.23-.14.34-.31.34-.54v-.78c0-.48-.1-.81-.3-.99-.21-.18-.5-.27-.86-.27-.59 0-1 .15-1.24.45.16.04.3.13.42.26.11.14.17.3.17.5 0 .21-.07.38-.2.5a.74.74 0 01-.52.18c-.23 0-.4-.07-.52-.22a.82.82 0 01-.18-.53c0-.2.05-.37.15-.5.1-.13.24-.27.43-.4.2-.14.45-.26.76-.35.31-.1.65-.14 1.02-.14zm-97.35 0c.65 0 1.14.16 1.47.46.21.2.35.43.42.7.07.27.11.63.11 1.07v3.48c0 .2.03.35.09.45.06.09.16.13.3.13.1 0 .2-.02.28-.06.09-.05.18-.11.28-.2l.14.21c-.22.17-.4.29-.56.36-.15.07-.35.1-.58.1-.4 0-.68-.1-.84-.3-.16-.2-.24-.46-.24-.8-.25.41-.54.7-.86.86-.33.17-.7.25-1.1.25-.53 0-.92-.13-1.17-.4a1.5 1.5 0 01-.38-1.1c0-.37.1-.68.3-.92.2-.24.45-.43.73-.57a9 9 0 011.1-.45c.47-.16.82-.3 1.05-.44.22-.14.33-.31.33-.54v-.78c0-.48-.1-.81-.3-.99-.2-.18-.5-.27-.86-.27-.59 0-1 .15-1.24.45a.75.75 0 01.59.76c0 .21-.07.38-.2.5a.74.74 0 01-.52.18c-.23 0-.4-.07-.52-.22a.82.82 0 01-.18-.53c0-.2.05-.37.15-.5.1-.13.24-.27.43-.4.2-.14.45-.26.76-.35.31-.1.65-.14 1.02-.14zm87.96.18v.25a.7.7 0 00-.45.22c-.13.14-.25.35-.37.65l-2.05 5.38h-.21l-2.3-5.54a1.51 1.51 0 00-.37-.56.58.58 0 00-.36-.14v-.26a22.06 22.06 0 002.73 0v.26c-.31 0-.54.02-.68.07-.14.04-.21.16-.21.35 0 .12.04.3.13.55l1.54 3.8 1.38-3.6c.1-.26.14-.45.14-.6 0-.19-.07-.33-.22-.41a1.69 1.69 0 00-.7-.17v-.25a19.04 19.04 0 002 0zM1.7 116.12v23.7H.96v-23.7h.75zm53.46 17.06c.58 0 1.02.16 1.32.48.16.16.28.37.34.62.07.25.1.59.1 1.01v3.35c0 .34.07.57.22.7.14.13.38.2.73.2v.26l-1.42-.05h-.08l-1.4.05v-.26c.3 0 .52-.07.64-.2.13-.13.19-.36.19-.7v-3.62c0-.47-.07-.82-.2-1.07-.14-.25-.4-.37-.82-.37-.34 0-.64.1-.91.3-.27.2-.48.47-.62.82-.15.35-.22.73-.22 1.16v2.78c0 .34.06.57.18.7s.34.2.65.2v.26l-1.32-.05h-.09l-1.5.05v-.26c.35 0 .6-.07.74-.2s.21-.36.21-.7v-3.92c0-.38-.07-.66-.21-.84-.14-.17-.39-.26-.74-.26v-.26l.78.03c.52 0 .96-.05 1.3-.17v1.47c.2-.53.5-.91.87-1.15.37-.24.79-.36 1.26-.36zm80.5.18v.25c-.33.04-.7.33-1.1.87l-1.26 1.75 1.84 2.68c.15.21.28.36.38.45.1.08.24.14.4.18v.26a13.86 13.86 0 00-2.37 0v-.26c.14 0 .25-.03.35-.08.1-.05.14-.11.14-.2 0-.06-.02-.1-.05-.15l-1.43-2.08-.91 1.2c-.23.3-.35.55-.35.74 0 .18.08.32.24.41.17.1.4.15.68.17v.25a24.83 24.83 0 00-2.37 0v-.25a1 1 0 00.5-.23c.17-.13.37-.35.6-.65l1.44-1.89-1.74-2.54c-.17-.24-.3-.4-.4-.48a.72.72 0 00-.38-.14v-.26a13.7 13.7 0 002.37 0v.26a.73.73 0 00-.35.07c-.1.05-.14.12-.14.2 0 .06.02.11.05.15l1.34 1.96.86-1.22c.25-.36.38-.62.38-.79 0-.11-.06-.2-.17-.27-.11-.06-.3-.1-.55-.11v-.25a19.02 19.02 0 002 0zm-48.97-.18c.59 0 1.03.16 1.33.48.16.16.27.37.34.62.06.25.1.59.1 1.01v3.35c0 .34.07.57.21.7.14.13.39.2.74.2v.26l-1.42-.05h-.08l-1.4.05v-.26c.3 0 .52-.07.64-.2s.18-.36.18-.7v-3.62c0-.47-.07-.82-.2-1.07-.13-.25-.4-.37-.81-.37-.34 0-.65.1-.92.3-.26.2-.47.47-.62.82-.14.35-.22.73-.22 1.16v2.78c0 .34.07.57.19.7s.33.2.64.2v.26l-1.31-.05h-.1l-1.5.05v-.26c.36 0 .6-.07.75-.2.14-.13.2-.36.2-.7v-3.92c0-.38-.06-.66-.2-.84-.15-.17-.4-.26-.74-.26v-.26l.77.03c.53 0 .96-.05 1.3-.17v1.47c.21-.53.5-.91.87-1.15.38-.24.8-.36 1.26-.36zm-54.86.04v5.42c0 .34.08.57.22.7s.39.2.74.2v.26a52.1 52.1 0 00-1.44-.05h-.08l-1.51.05v-.26c.35 0 .6-.07.73-.2.15-.13.22-.36.22-.7v-3.92c0-.38-.07-.66-.22-.84-.14-.17-.38-.26-.73-.26v-.26l.77.03c.53 0 .96-.05 1.3-.17zm129.78-.04c.58 0 1.02.16 1.32.48.16.16.28.37.34.62.07.25.1.59.1 1.01v3.35c0 .34.07.57.22.7.14.13.38.2.73.2v.26l-1.42-.05h-.08l-1.4.05v-.26c.3 0 .52-.07.64-.2.13-.13.19-.36.19-.7v-3.62c0-.47-.07-.82-.2-1.07-.14-.25-.4-.37-.82-.37-.34 0-.64.1-.91.3-.27.2-.48.47-.62.82-.15.35-.22.73-.22 1.16v2.78c0 .34.06.57.18.7s.34.2.65.2v.26l-1.32-.05h-.09l-1.5.05v-.26c.35 0 .6-.07.74-.2s.21-.36.21-.7v-3.92c0-.38-.07-.66-.21-.84-.14-.17-.39-.26-.74-.26v-.26l.78.03c.52 0 .96-.05 1.3-.17v1.47c.2-.53.5-.91.87-1.15.37-.24.79-.36 1.26-.36zm-14.29 0c.57 0 1 .16 1.3.48.16.16.26.38.32.63.07.26.1.6.1 1v3.35c0 .34.07.57.21.7.14.13.39.2.74.2v.26l-1.42-.05h-.08l-1.4.05v-.26c.3 0 .52-.07.64-.2s.18-.36.18-.7v-3.62c0-.32-.02-.57-.05-.77a.85.85 0 00-.27-.48c-.13-.13-.35-.19-.63-.19-.32 0-.6.1-.86.3-.26.2-.46.47-.61.82-.15.35-.22.73-.22 1.15v2.79c0 .34.07.57.21.7.14.13.4.2.74.2v.26l-1.42-.05h-.08l-1.4.05v-.26c.3 0 .52-.07.64-.2s.18-.36.18-.7v-3.62c0-.32-.02-.57-.05-.77a.85.85 0 00-.27-.48c-.13-.13-.34-.19-.63-.19-.32 0-.6.1-.86.3-.26.2-.46.48-.6.83-.16.35-.23.73-.23 1.15v2.78c0 .34.06.57.18.7s.34.2.65.2v.26l-1.32-.05h-.08l-1.5.05v-.26c.34 0 .6-.07.73-.2.14-.13.22-.36.22-.7v-3.92c0-.38-.08-.66-.22-.84-.14-.17-.39-.26-.74-.26v-.26l.78.03c.53 0 .96-.05 1.3-.17v1.47c.2-.51.49-.9.85-1.14.37-.25.77-.37 1.2-.37.57 0 1 .16 1.3.48.22.21.35.55.4 1 .2-.53.5-.9.86-1.14.37-.22.77-.34 1.21-.34zm6.29.25c-.5 0-.9.26-1.2.77a5 5 0 00-.43 2.38c0 1.08.15 1.87.44 2.38.3.51.69.76 1.19.76s.9-.25 1.19-.76c.29-.5.44-1.3.44-2.38a5 5 0 00-.44-2.38c-.3-.51-.7-.77-1.2-.77zm-60.58 0c-.5 0-.9.26-1.2.77a5 5 0 00-.43 2.38c0 1.08.15 1.87.44 2.38.29.51.69.76 1.19.76s.9-.25 1.19-.76c.29-.5.44-1.3.44-2.38a5 5 0 00-.44-2.38c-.3-.51-.7-.77-1.2-.77zm-77.63.13c-.35 0-.67.13-.97.4-.29.27-.5.66-.62 1.15v3.96a1.95 1.95 0 001.44.62c.56 0 .98-.26 1.26-.76.27-.5.41-1.29.41-2.35a5.3 5.3 0 00-.37-2.27c-.25-.5-.64-.75-1.15-.75zm53.53-.1c-.52 0-.94.27-1.25.8-.32.53-.47 1.3-.47 2.32 0 1 .14 1.76.43 2.26.3.5.72.76 1.28.76.32 0 .61-.13.87-.38s.44-.6.54-1.06v-3.73c-.22-.64-.7-.96-1.4-.96zm99.11 0c-.52 0-.93.27-1.25.8a4.5 4.5 0 00-.46 2.32c-.01 1 .13 1.76.42 2.26.3.5.72.76 1.28.76.33 0 .62-.13.88-.38s.43-.6.53-1.06v-3.73c-.22-.64-.69-.96-1.4-.96zm-47.96 2.52a.87.87 0 01-.31.3 8.7 8.7 0 01-.61.3c-.32.13-.58.25-.77.37-.2.12-.37.29-.51.5-.14.2-.21.47-.21.8 0 .37.09.66.27.85.18.2.43.29.73.29.55 0 1.02-.32 1.41-.95v-2.46zm-97.35 0a.87.87 0 01-.31.3l-.61.3a5.7 5.7 0 00-.77.37c-.2.12-.37.29-.51.5-.14.2-.21.47-.21.8 0 .37.09.66.27.85.19.2.43.29.73.29.55 0 1.02-.32 1.41-.95v-2.46zm24.88-2.56c-.4 0-.73.19-1.02.57-.28.39-.45.95-.52 1.7h2.73a3.6 3.6 0 00-.28-1.62c-.2-.43-.51-.65-.91-.65zm28.42 0c-.4 0-.73.19-1.02.57-.28.39-.46.95-.52 1.7h2.73c.01-.65-.08-1.19-.29-1.62-.2-.43-.5-.65-.9-.65zm37.07 0c-.4 0-.73.19-1.02.57-.28.39-.46.95-.52 1.7h2.73c.01-.65-.08-1.19-.29-1.62-.2-.43-.5-.65-.9-.65zm62.04 0c-.4 0-.73.19-1.01.57-.29.39-.46.95-.53 1.7h2.73a3.6 3.6 0 00-.28-1.62c-.2-.43-.5-.65-.9-.65zm-153.22-3.66a4.46 4.46 0 002.1 2.15l-.11.18c-.45-.16-.9-.35-1.32-.57a5.41 5.41 0 01-1.03-.68c-.21.23-.49.45-.82.68-.34.22-.69.41-1.04.57l-.1-.17a4.47 4.47 0 002.1-2.16h.22zm9.26.47c.22 0 .4.08.57.24.16.15.23.34.23.56 0 .22-.07.4-.23.56a.77.77 0 01-.57.24.77.77 0 01-.56-.24.77.77 0 01-.24-.56c0-.22.08-.4.24-.56a.77.77 0 01.56-.24zm.24-11.12c.44 0 .84.12 1.2.37.35.24.63.6.83 1.06a5.2 5.2 0 010 3.48 3.1 3.1 0 01-.96 1.36 2.47 2.47 0 01-2.47.34 1.54 1.54 0 01-.6-.49v1.6c0 .35.1.58.3.71.2.13.5.2.9.2v.26l-.29-.02a75.5 75.5 0 00-1.43-.03h-.08c-.2 0-.65.01-1.35.05v-.27c.3 0 .52-.05.64-.16.12-.12.18-.32.18-.61v-6.3c0-.4-.07-.67-.21-.85-.14-.17-.39-.26-.74-.26v-.26c.26.02.52.04.78.04.52 0 .96-.06 1.3-.18v1.33l.08-.18a2.1 2.1 0 011.92-1.18zm60.6 5.2c.32 0 .57.13.73.4.14.22.22.5.22.82 0 .42-.11.8-.32 1.13-.22.33-.54.6-.97.8l-.12-.23c.26-.1.48-.28.67-.5.2-.24.28-.48.28-.72 0-.1 0-.19-.03-.27a.71.71 0 01-.47.17.8.8 0 01-.57-.22.76.76 0 01-.23-.58c0-.23.08-.42.23-.57a.77.77 0 01.57-.23zm-44.14-5.2a2.18 2.18 0 011.37.47c.1.06.17.1.22.1.15 0 .25-.19.28-.55h.29c-.04.4-.05 1.11-.05 2.12h-.29c-.1-.55-.27-1-.53-1.36-.27-.36-.66-.54-1.17-.54-.3 0-.55.09-.74.26a.9.9 0 00-.29.7c0 .3.1.54.3.74.2.2.52.43.96.7l.34.22c.39.25.7.47.93.66.23.2.42.41.57.66.14.25.22.54.22.87 0 .55-.2.98-.62 1.28-.41.31-.92.47-1.52.47-.38 0-.7-.06-1-.18a2.6 2.6 0 01-.5-.34l-.12-.05c-.06 0-.1.05-.15.13-.05.08-.09.2-.11.35h-.29c.03-.48.05-1.31.05-2.5h.29c.1.78.26 1.37.5 1.76.24.38.66.58 1.24.58.3 0 .55-.1.78-.3.22-.18.33-.48.33-.9 0-.32-.1-.6-.33-.82-.22-.22-.58-.5-1.08-.81-.41-.26-.73-.47-.95-.64-.22-.17-.4-.37-.55-.61a1.58 1.58 0 01-.23-.85c0-.53.18-.93.53-1.2.35-.28.79-.42 1.32-.42zm39.56 0a2.18 2.18 0 011.37.47c.1.06.17.1.22.1.15 0 .25-.19.28-.55h.29c-.04.4-.05 1.11-.05 2.12h-.29c-.1-.55-.27-1-.53-1.36-.27-.36-.66-.54-1.17-.54-.3 0-.55.09-.74.26a.9.9 0 00-.29.7c0 .3.1.54.3.74.2.2.52.43.97.7l.33.22c.39.25.7.47.93.66.23.2.42.41.57.66.15.25.22.54.22.87 0 .55-.2.98-.62 1.28-.41.31-.92.47-1.52.47-.38 0-.7-.06-1-.18-.18-.09-.35-.2-.5-.34l-.12-.05c-.06 0-.1.05-.15.13-.05.08-.09.2-.11.35h-.29c.04-.48.05-1.31.05-2.5h.29c.1.78.26 1.37.5 1.76.24.38.66.58 1.24.58.3 0 .55-.1.78-.3.22-.18.33-.48.33-.9 0-.32-.1-.6-.33-.82a6.3 6.3 0 00-1.08-.81c-.41-.26-.72-.47-.95-.64-.22-.17-.4-.37-.55-.61a1.58 1.58 0 01-.23-.85c0-.53.18-.93.53-1.2.35-.28.79-.42 1.32-.42zm35.92 0c.56 0 1.04.14 1.45.4.4.26.6.58.6.97a.7.7 0 01-.2.51.65.65 0 01-.47.19.73.73 0 01-.49-.17.57.57 0 01-.2-.46c0-.17.05-.32.15-.44.1-.12.23-.2.38-.25a.94.94 0 00-.45-.37c-.21-.1-.44-.15-.68-.15-.31 0-.6.1-.87.3-.26.19-.48.51-.66.97a5.08 5.08 0 00-.26 1.8c0 1.03.17 1.78.5 2.25.33.47.77.7 1.3.7.36 0 .7-.1 1.02-.3.32-.21.59-.54.8-.98l.23.09c-.14.47-.4.88-.79 1.22-.39.35-.9.52-1.5.52a2.58 2.58 0 01-2.41-1.56c-.24-.5-.37-1.1-.37-1.76 0-.67.13-1.27.37-1.8.25-.53.6-.94 1.04-1.23.44-.3.94-.45 1.51-.45zm-9.6 0a2.17 2.17 0 011.36.47c.1.06.17.1.23.1.15 0 .24-.19.27-.55h.3c-.04.4-.06 1.11-.06 2.12h-.29c-.09-.55-.26-1-.53-1.36-.26-.36-.65-.54-1.17-.54-.3 0-.55.09-.74.26a.9.9 0 00-.28.7c0 .3.1.54.3.74.2.2.52.43.96.7l.34.22c.38.25.7.47.92.66.24.2.43.41.57.66.15.25.22.54.22.87 0 .55-.2.98-.62 1.28-.41.31-.92.47-1.52.47-.37 0-.7-.06-.99-.18-.18-.09-.35-.2-.51-.34l-.11-.05c-.06 0-.11.05-.16.13s-.08.2-.1.35h-.3c.04-.48.06-1.31.06-2.5h.28c.1.78.26 1.37.5 1.76.25.38.66.58 1.24.58.3 0 .56-.1.78-.3.23-.18.34-.48.34-.9 0-.32-.11-.6-.33-.82-.22-.22-.59-.5-1.09-.81a14.2 14.2 0 01-.94-.64c-.22-.17-.4-.37-.56-.61a1.58 1.58 0 01-.22-.85c0-.53.17-.93.52-1.2.35-.28.8-.42 1.33-.42zm-73.37.04v5.23c0 .39.07.66.2.84.15.17.4.26.75.26v.26a8.18 8.18 0 00-.78-.03c-.53 0-.96.06-1.3.17v-1.47l-.08.18c-.2.43-.45.74-.77.95-.37.25-.77.37-1.2.37-.57 0-1-.16-1.3-.48a1.44 1.44 0 01-.33-.64 4.4 4.4 0 01-.09-1v-3.14c0-.38-.07-.66-.21-.84-.14-.17-.4-.26-.74-.26v-.26c.26.02.52.04.78.04.52 0 .95-.06 1.3-.18v4.92c0 .32.02.57.05.77.04.2.13.35.27.48.13.12.34.19.63.19.32 0 .6-.1.86-.3.26-.2.46-.48.6-.82.16-.35.23-.73.23-1.15v-2.59c0-.38-.07-.66-.21-.84-.15-.17-.4-.26-.74-.26v-.26c.26.02.51.04.77.04.53 0 .96-.06 1.3-.18zm125.47-.04a2.18 2.18 0 011.37.47c.09.06.17.1.22.1.15 0 .25-.19.28-.55h.29c-.04.4-.05 1.11-.05 2.12h-.3c-.08-.55-.26-1-.52-1.36-.27-.36-.66-.54-1.17-.54-.3 0-.55.09-.74.26a.9.9 0 00-.3.7c0 .3.11.54.31.74.2.2.52.43.96.7l.34.22c.39.25.7.47.93.66.23.2.42.41.57.66.14.25.22.54.22.87 0 .55-.2.98-.62 1.28-.42.31-.92.47-1.52.47-.38 0-.7-.06-1-.18-.18-.09-.35-.2-.5-.34l-.12-.05c-.06 0-.1.05-.15.13-.05.08-.09.2-.11.35h-.29c.03-.48.05-1.31.05-2.5h.29c.09.78.26 1.37.5 1.76.24.38.65.58 1.24.58.3 0 .55-.1.77-.3.23-.18.34-.48.34-.9 0-.32-.1-.6-.33-.82-.22-.22-.58-.5-1.08-.81a14.2 14.2 0 01-.95-.64c-.22-.17-.4-.37-.55-.61a1.58 1.58 0 01-.23-.85c0-.53.18-.93.53-1.2.35-.28.79-.42 1.32-.42zm-5.6 0a2.18 2.18 0 011.37.47c.1.06.17.1.23.1.15 0 .24-.19.27-.55h.29c-.03.4-.05 1.11-.05 2.12h-.29c-.09-.55-.27-1-.53-1.36-.26-.36-.65-.54-1.17-.54-.3 0-.55.09-.74.26a.9.9 0 00-.29.7c0 .3.1.54.3.74.2.2.52.43.97.7l.34.22c.38.25.69.47.92.66.24.2.43.41.57.66.15.25.22.54.22.87 0 .55-.2.98-.62 1.28-.41.31-.92.47-1.52.47-.38 0-.7-.06-.99-.18-.18-.09-.35-.2-.51-.34l-.11-.05c-.06 0-.12.05-.16.13-.05.08-.08.2-.1.35h-.3c.04-.48.05-1.31.05-2.5h.3c.08.78.25 1.37.5 1.76.24.38.65.58 1.23.58.3 0 .55-.1.78-.3.22-.18.34-.48.34-.9 0-.32-.11-.6-.33-.82-.23-.22-.59-.5-1.09-.81-.4-.26-.72-.47-.94-.64-.22-.17-.41-.37-.56-.61a1.58 1.58 0 01-.23-.85c0-.53.18-.93.53-1.2.35-.28.8-.42 1.33-.42zm31.8 0c.74 0 1.32.23 1.73.69.4.45.6 1.14.6 2.07h-3.91c-.03.23-.04.5-.04.8 0 .55.09 1.03.27 1.44.18.4.41.72.71.94.3.22.6.33.93.33.4 0 .76-.1 1.07-.29.3-.19.57-.5.77-.96l.25.1c-.15.46-.43.85-.84 1.18-.41.33-.91.5-1.5.5s-1.1-.14-1.54-.4a2.62 2.62 0 01-1-1.15 3.94 3.94 0 01-.34-1.7c0-.72.12-1.35.35-1.88a2.6 2.6 0 012.48-1.66zm5.53 0a2.18 2.18 0 011.36.47c.1.06.17.1.23.1.15 0 .24-.19.27-.55h.29c-.03.4-.05 1.11-.05 2.12h-.29c-.09-.55-.27-1-.53-1.36-.26-.36-.65-.54-1.17-.54-.3 0-.55.09-.74.26a.9.9 0 00-.29.7c0 .3.1.54.3.74.2.2.52.43.97.7l.33.22c.39.25.7.47.93.66.24.2.43.41.57.66.15.25.22.54.22.87 0 .55-.2.98-.62 1.28-.41.31-.92.47-1.52.47-.38 0-.7-.06-.99-.18a2.6 2.6 0 01-.51-.34l-.12-.05c-.05 0-.1.05-.15.13-.05.08-.08.2-.1.35h-.3c.04-.48.05-1.31.05-2.5h.3c.08.78.25 1.37.5 1.76.23.38.65.58 1.23.58.3 0 .55-.1.78-.3.22-.18.34-.48.34-.9 0-.32-.11-.6-.34-.82-.22-.22-.58-.5-1.08-.81-.4-.26-.72-.47-.94-.64-.23-.17-.41-.37-.56-.61a1.58 1.58 0 01-.23-.85c0-.53.18-.93.53-1.2.35-.28.8-.42 1.33-.42zm-133.27 0c.59 0 1.1.14 1.57.41.46.27.81.66 1.07 1.16.26.5.4 1.07.4 1.72 0 .67-.14 1.27-.4 1.8a3 3 0 01-2.77 1.7 2.85 2.85 0 01-2.64-1.56c-.26-.5-.4-1.08-.4-1.74 0-.65.14-1.25.4-1.78s.63-.95 1.11-1.25c.48-.3 1.04-.46 1.66-.46zm43.4 0c.86 0 1.54.28 2.06.85.53.56.79 1.41.79 2.56 0 1.14-.26 1.99-.79 2.55-.52.56-1.2.84-2.05.84-.86 0-1.54-.28-2.06-.84-.53-.56-.79-1.41-.79-2.55 0-1.15.26-2 .79-2.56.52-.57 1.2-.85 2.06-.85zm-50.37-2.41c.6 0 1.08.15 1.48.45.39.3.58.72.58 1.26 0 .45-.13.87-.4 1.24-.28.38-.68.73-1.19 1.07.47.34.83.62 1.1.85.25.23.48.5.66.83.2.33.29.7.29 1.12a2.25 2.25 0 01-1.32 2.09c-.4.2-.87.3-1.39.3-.7 0-1.3-.18-1.79-.55a1.83 1.83 0 01-.73-1.55c0-.58.19-1.1.56-1.54.36-.45.85-.83 1.45-1.13a6.8 6.8 0 01-1.18-1.19c-.27-.37-.41-.8-.41-1.3 0-.38.1-.72.3-1.02.2-.3.47-.53.82-.69.36-.16.74-.24 1.17-.24zm72.03 2.41c.85 0 1.54.28 2.06.85.52.56.78 1.41.78 2.56 0 1.14-.26 1.99-.78 2.55-.52.56-1.2.84-2.06.84-.85 0-1.53-.28-2.06-.84-.52-.56-.78-1.41-.78-2.55 0-1.15.26-2 .78-2.56.53-.57 1.21-.85 2.06-.85zm-105.24 0c.75 0 1.32.23 1.73.69.4.45.6 1.14.6 2.07h-3.91c-.03.23-.04.5-.04.8 0 .55.09 1.03.27 1.44.18.4.42.72.71.94.3.22.61.33.94.33.4 0 .75-.1 1.06-.29.3-.19.57-.5.78-.96l.25.1c-.15.46-.44.85-.85 1.18-.41.33-.91.5-1.5.5s-1.1-.14-1.53-.4a2.62 2.62 0 01-1-1.15 3.94 3.94 0 01-.34-1.7c0-.72.11-1.35.35-1.88a2.6 2.6 0 012.48-1.66zm161.92 0c.56 0 1.04.14 1.45.4.4.26.59.58.59.97a.7.7 0 01-.2.51.64.64 0 01-.47.19.73.73 0 01-.49-.17.57.57 0 01-.2-.46c0-.17.05-.32.16-.44.1-.12.22-.2.37-.25a.94.94 0 00-.44-.37c-.22-.1-.44-.15-.69-.15-.3 0-.6.1-.86.3-.27.19-.49.51-.66.97a5.1 5.1 0 00-.27 1.8c0 1.03.17 1.78.5 2.25.34.47.77.7 1.3.7.37 0 .7-.1 1.03-.3.32-.21.58-.54.8-.98l.23.09c-.14.47-.4.88-.8 1.22-.38.35-.89.52-1.5.52a2.58 2.58 0 01-2.4-1.56c-.25-.5-.37-1.1-.37-1.76 0-.67.12-1.27.37-1.8.24-.53.59-.94 1.03-1.23.44-.3.95-.45 1.52-.45zm-111.8 0c.65 0 1.15.16 1.48.47.2.19.35.42.42.69.07.27.1.63.1 1.07v3.48c0 .2.03.36.1.45.05.1.15.14.3.14.1 0 .19-.03.27-.07.1-.05.19-.11.29-.2l.13.22c-.21.16-.4.28-.55.35-.16.07-.35.11-.58.11-.4 0-.69-.1-.84-.3-.16-.2-.24-.47-.24-.81-.25.41-.54.7-.87.87-.32.16-.69.24-1.1.24-.52 0-.91-.13-1.17-.4a1.5 1.5 0 01-.38-1.09c0-.37.1-.68.3-.92.21-.25.45-.44.73-.58a9 9 0 011.11-.45c.47-.16.81-.3 1.04-.44.23-.13.34-.31.34-.54v-.77c0-.49-.1-.82-.3-1-.21-.18-.5-.27-.87-.27-.58 0-1 .15-1.24.45.17.05.31.13.42.27.12.13.17.3.17.5s-.06.37-.2.5a.74.74 0 01-.51.17c-.23 0-.41-.07-.53-.22a.82.82 0 01-.17-.53c0-.2.05-.37.14-.5.1-.13.24-.27.43-.4.2-.14.46-.26.77-.35.3-.1.64-.14 1.01-.14zm97.73 0c.65 0 1.14.16 1.47.47.21.19.35.42.42.69.07.27.1.63.1 1.07v3.48c0 .2.04.36.1.45.05.1.15.14.3.14.1 0 .19-.03.28-.07.09-.05.18-.11.28-.2l.14.22c-.22.16-.4.28-.56.35-.15.07-.35.11-.58.11-.4 0-.68-.1-.84-.3-.16-.2-.24-.47-.24-.81-.25.41-.54.7-.86.87-.33.16-.7.24-1.1.24-.53 0-.92-.13-1.17-.4a1.5 1.5 0 01-.39-1.09c0-.37.1-.68.31-.92.2-.25.45-.44.73-.58a9 9 0 011.1-.45c.47-.16.82-.3 1.04-.44.23-.13.34-.31.34-.54v-.77c0-.49-.1-.82-.3-1-.2-.18-.5-.27-.86-.27-.59 0-1 .15-1.24.45.16.05.3.13.42.27.11.13.17.3.17.5s-.07.37-.2.5a.74.74 0 01-.52.17c-.23 0-.4-.07-.52-.22a.82.82 0 01-.18-.53c0-.2.05-.37.15-.5.1-.13.24-.27.43-.4.2-.14.45-.26.76-.35.31-.1.65-.14 1.02-.14zm-21.1 0c.65 0 1.14.16 1.48.47.2.19.35.42.42.69.07.27.1.63.1 1.07v3.48c0 .2.03.36.1.45.05.1.15.14.3.14.1 0 .19-.03.27-.07.1-.05.18-.11.29-.2l.13.22c-.21.16-.4.28-.55.35-.16.07-.35.11-.59.11-.4 0-.68-.1-.84-.3-.15-.2-.23-.47-.23-.81-.25.41-.54.7-.87.87-.32.16-.69.24-1.1.24-.52 0-.91-.13-1.17-.4a1.5 1.5 0 01-.38-1.09c0-.37.1-.68.3-.92.21-.25.45-.44.73-.58a9 9 0 011.11-.45c.47-.16.81-.3 1.04-.44.22-.13.34-.31.34-.54v-.77c0-.49-.1-.82-.31-1-.2-.18-.49-.27-.86-.27-.58 0-1 .15-1.24.45.17.05.31.13.42.27.12.13.17.3.17.5s-.07.37-.2.5a.74.74 0 01-.51.17c-.24 0-.41-.07-.53-.22a.82.82 0 01-.17-.53c0-.2.05-.37.14-.5.1-.13.24-.27.43-.4.2-.14.46-.26.77-.35.3-.1.64-.14 1.01-.14zm5.55.04v5.42c0 .34.07.58.2.7.15.14.4.2.75.2v.26a52.1 52.1 0 00-1.44-.05h-.08l-1.51.05v-.26c.35 0 .6-.06.74-.2.14-.12.21-.36.21-.7v-3.92c0-.38-.07-.66-.21-.84-.15-.17-.4-.26-.74-.26v-.26c.27.02.52.04.77.04.53 0 .96-.06 1.3-.18zm-19.06-.04c.59 0 1.03.16 1.33.48.16.17.27.37.34.62.06.25.1.6.1 1.02v3.34c0 .34.07.58.21.7.14.14.39.2.74.2v.26a44.3 44.3 0 00-1.5-.05l-1.4.05v-.26c.3 0 .52-.06.64-.2.12-.12.18-.36.18-.7v-3.62c0-.46-.07-.82-.2-1.07-.13-.24-.4-.37-.81-.37-.35 0-.65.1-.92.3-.26.2-.47.48-.62.82-.14.35-.22.74-.22 1.16v2.78c0 .34.06.58.19.7.12.14.33.2.64.2v.26l-1.4-.05-1.5.05v-.26c.35 0 .6-.06.73-.2.15-.12.22-.36.22-.7v-3.92c0-.38-.07-.66-.22-.84-.14-.17-.38-.26-.73-.26v-.26c.26.02.52.04.77.04.53 0 .96-.06 1.3-.18v1.48c.21-.54.5-.92.87-1.16.38-.24.8-.36 1.26-.36zm-93.33.04v5.42c0 .34.07.58.22.7.14.14.38.2.74.2v.26a52.1 52.1 0 00-1.44-.05h-.08l-1.51.05v-.26c.35 0 .6-.06.73-.2.15-.12.22-.36.22-.7v-3.92c0-.38-.07-.66-.22-.84-.14-.17-.38-.26-.73-.26v-.26c.26.02.52.04.77.04.53 0 .96-.06 1.3-.18zm135.6-.04c.6 0 1.04.16 1.34.48.15.17.27.37.33.62.07.25.1.6.1 1.02v3.34c0 .34.07.58.22.7.14.14.39.2.74.2v.26a44.3 44.3 0 00-1.5-.05l-1.4.05v-.26c.3 0 .52-.06.64-.2.12-.12.18-.36.18-.7v-3.62c0-.46-.07-.82-.2-1.07-.14-.24-.4-.37-.82-.37-.34 0-.64.1-.91.3-.27.2-.47.48-.62.82-.15.35-.22.74-.22 1.16v2.78c0 .34.06.58.18.7.12.14.34.2.65.2v.26l-1.4-.05-1.5.05v-.26c.34 0 .59-.06.73-.2.14-.12.21-.36.21-.7v-3.92c0-.38-.07-.66-.2-.84-.15-.17-.4-.26-.75-.26v-.26c.27.02.53.04.78.04.52 0 .96-.06 1.3-.18v1.48c.21-.54.5-.92.87-1.16.37-.24.8-.36 1.26-.36zm-97.71 0c.58 0 1.02.16 1.32.48.16.17.27.37.34.62s.1.6.1 1.02v3.34c0 .34.07.58.21.7.15.14.4.2.74.2v.26l-1.5-.05-1.4.05v-.26c.3 0 .52-.06.64-.2.12-.12.18-.36.18-.7v-3.62c0-.46-.06-.82-.2-1.07-.13-.24-.4-.37-.81-.37-.34 0-.65.1-.91.3-.27.2-.48.48-.62.82-.15.35-.22.74-.22 1.16v2.78c0 .34.06.58.18.7.12.14.34.2.64.2v.26a36.4 36.4 0 00-1.4-.05l-1.5.05v-.26c.35 0 .6-.06.74-.2.14-.12.21-.36.21-.7v-3.92c0-.38-.07-.66-.21-.84-.14-.17-.39-.26-.74-.26v-.26c.27.02.53.04.78.04.52 0 .96-.06 1.3-.18v1.48c.2-.54.5-.92.87-1.16.37-.24.79-.36 1.26-.36zm62.92 0c.58 0 1.02.16 1.32.48.16.17.27.37.34.62s.1.6.1 1.02v3.34c0 .34.07.58.21.7.15.14.4.2.74.2v.26a44.3 44.3 0 00-1.5-.05l-1.4.05v-.26c.3 0 .52-.06.64-.2.12-.12.19-.36.19-.7v-3.62c0-.46-.07-.82-.2-1.07-.14-.24-.41-.37-.82-.37-.34 0-.65.1-.91.3-.27.2-.48.48-.62.82-.15.35-.22.74-.22 1.16v2.78c0 .34.06.58.18.7.12.14.34.2.64.2v.26l-1.4-.05-1.5.05v-.26c.35 0 .6-.06.74-.2.14-.12.21-.36.21-.7v-3.92c0-.38-.07-.66-.21-.84-.14-.17-.39-.26-.74-.26v-.26c.27.02.53.04.78.04.52 0 .96-.06 1.3-.18v1.48c.2-.54.5-.92.87-1.16.37-.24.79-.36 1.26-.36zm-43.47 0c.58 0 1.03.16 1.33.48.16.17.27.37.34.62.06.25.1.6.1 1.02v3.34c0 .34.07.58.2.7.15.14.4.2.75.2v.26l-1.5-.05-1.4.05v-.26c.3 0 .52-.06.64-.2.12-.12.18-.36.18-.7v-3.62c0-.46-.07-.82-.2-1.07-.13-.24-.4-.37-.82-.37-.34 0-.64.1-.9.3-.28.2-.48.48-.63.82-.14.35-.22.74-.22 1.16v2.78c0 .34.06.58.18.7.12.14.34.2.65.2v.26a36.4 36.4 0 00-1.4-.05l-1.5.05v-.26c.34 0 .59-.06.73-.2.14-.12.22-.36.22-.7v-3.92c0-.38-.08-.66-.22-.84-.14-.17-.39-.26-.74-.26v-.26c.27.02.53.04.78.04.53 0 .96-.06 1.3-.18v1.48c.21-.54.5-.92.87-1.16.37-.24.8-.36 1.26-.36zm-85.77-2.24c1.48 0 2.59.37 3.32 1.11.73.74 1.1 1.81 1.1 3.22 0 .91-.18 1.7-.54 2.4a3.75 3.75 0 01-1.56 1.58 5 5 0 01-2.43.55l-.73-.01-.92-.02h-.1c-.69 0-1.2 0-1.56.03v-.25c.3-.01.52-.05.66-.1a.45.45 0 00.28-.29c.05-.14.08-.37.08-.68v-6.21c0-.32-.03-.55-.08-.69a.45.45 0 00-.28-.29 2.53 2.53 0 00-.66-.1v-.25c.3.03.7.04 1.22.04l1.06-.01 1.14-.03zm48.59 2.47c-.36 0-.68.13-.96.38-.28.25-.5.63-.65 1.11a5.76 5.76 0 00-.23 1.74c0 1.06.18 1.84.54 2.35.36.5.82.76 1.39.76.36 0 .67-.13.95-.39.28-.25.5-.63.66-1.12.15-.48.23-1.06.23-1.73 0-1.05-.18-1.83-.54-2.34-.36-.5-.82-.76-1.4-.76zm-7.37 1.95c-.73.53-1.1 1.3-1.1 2.33 0 .59.13 1.08.37 1.47.24.4.62.6 1.13.6.44 0 .81-.15 1.11-.45.3-.29.45-.69.45-1.2 0-.39-.09-.74-.27-1.05-.18-.32-.39-.59-.64-.81-.24-.23-.6-.52-1.05-.89zm72.54-1.93c-.5 0-.9.26-1.19.77a5 5 0 00-.43 2.39c0 1.07.14 1.87.43 2.37.3.51.7.77 1.2.77s.89-.26 1.18-.77c.3-.5.44-1.3.44-2.37a5 5 0 00-.44-2.39c-.29-.51-.69-.77-1.19-.77zm-21.65 0c-.5 0-.9.26-1.2.77a5 5 0 00-.43 2.39c0 1.07.14 1.87.44 2.37.29.51.68.77 1.19.77.5 0 .9-.26 1.18-.77.3-.5.44-1.3.44-2.37a5 5 0 00-.44-2.39c-.29-.51-.68-.77-1.18-.77zm-76.65.13c-.37 0-.71.13-1.01.4-.3.28-.52.67-.65 1.18v3.75a1.41 1.41 0 001.33.8c1.19 0 1.79-1.08 1.79-3.23 0-1.93-.49-2.9-1.46-2.9zm-15.77-2.4c-.26 0-.45.04-.58.1a.5.5 0 00-.27.3c-.05.16-.08.38-.08.68v6.26c0 .3.03.53.08.68a.5.5 0 00.27.31 3.9 3.9 0 002.69-.4c.5-.32.86-.79 1.06-1.4.2-.62.31-1.4.31-2.37 0-.96-.11-1.74-.34-2.34-.22-.6-.59-1.06-1.1-1.36a4 4 0 00-2.04-.45zm136.46 4.83a.87.87 0 01-.32.28 8.7 8.7 0 01-.6.3c-.33.14-.58.26-.78.39-.2.12-.37.28-.5.49-.15.2-.22.48-.22.8 0 .38.1.66.28.85.18.2.42.29.72.29.55 0 1.02-.32 1.42-.95v-2.45zm21.1 0a.87.87 0 01-.32.28 8.7 8.7 0 01-.61.3c-.32.14-.58.26-.77.39-.2.12-.37.28-.51.49-.14.2-.21.48-.21.8 0 .38.09.66.27.85.18.2.43.29.73.29.55 0 1.02-.32 1.41-.95v-2.45zm-97.73 0a.86.86 0 01-.31.28c-.14.08-.34.18-.62.3a5.7 5.7 0 00-.77.39c-.2.12-.36.28-.5.49-.15.2-.22.48-.22.8 0 .38.1.66.28.85.18.2.42.29.72.29.55 0 1.03-.32 1.42-.95v-2.45zm-51.05-2.57c-.4 0-.74.2-1.02.58-.28.38-.46.95-.52 1.7h2.73A3.6 3.6 0 0025 120c-.2-.43-.5-.65-.9-.65zm167.91 0c-.39 0-.73.2-1.01.58-.28.38-.46.95-.53 1.7h2.73c.02-.65-.07-1.2-.28-1.63-.2-.43-.5-.65-.9-.65zm-134.79-2.43c-.34 0-.62.12-.84.37-.23.24-.34.56-.34.97 0 .48.14.88.41 1.22.27.34.67.7 1.2 1.1.51-.5.77-1.16.77-2 0-.5-.1-.9-.31-1.2-.2-.3-.5-.46-.89-.46zm-13.8-.76c.2 0 .4.08.56.24.15.16.23.34.23.56 0 .22-.08.4-.23.56a.77.77 0 01-.57.24.77.77 0 01-.56-.24.77.77 0 01-.24-.56c0-.22.08-.4.24-.56a.77.77 0 01.56-.24zm112.38 0c.21 0 .4.08.56.24.16.16.24.34.24.56 0 .22-.08.4-.24.56a.77.77 0 01-.56.24.77.77 0 01-.57-.24.77.77 0 01-.24-.56c0-.22.08-.4.24-.56a.77.77 0 01.57-.24zM58.88.49c5.37-.9 13.84-.62 17.9 1.22 4.58 2.07 7.82 5.92 8.4 9.78 1.66 10.8-10.88 24.44-34.84 32.18a167.2 167.2 0 0013.77 15.2c1.38 1.37 2.72 2.68 4.03 3.94 4.65-6.59 15.1-21.23 22.3-28.82 14.77-15.56 26.67-20.38 34.05-21.68 8.6-1.51 16.37.05 22.14 4.08 4.95 3.46 8.6 10.89 9.53 17.17.05.35-.29.63-.63.54a42.79 42.79 0 00-10.7-1.49c-2.48 0-4.87.26-7.2.77a.4.4 0 01-.5-.38c-.36-5.93-1.62-11.47-4.53-14.61-1.9-2.05-4.33-2.86-7.43-2.48-5.7.7-13.24 6.71-20.7 16.5-6.98 9.16-10.58 14.87-13.59 20.52-2.55 4.8-7.66 14.02-11.78 20.1 12.72 11.43 23.73 19.34 32.45 20.6 7.56 1.1 13-3.56 17.46-14.85a.6.6 0 01.87-.28 30 30 0 0015.38 4.67c.3.01.47.35.3.6-3.95 5.58-8.23 8.75-11.85 10.52-6.22 3.04-15.12 4.79-23.67 3.8-12.1-1.4-25.02-6.86-38.66-16.58-10.65 9.73-22.7 14.34-35.73 16.36-5.56.86-18.93 1.1-24.85-1.65C7.18 94.52 1.07 90.6.16 82.69c-.65-5.62.37-14.01 8.92-22.02 6.54-6.13 16.21-10.3 25.56-14.32 0 0-5.94-7.54-5.65-16.99.17-5.66 3.28-12.27 9.55-18.38A37.97 37.97 0 0158.88.49zM36.94 49.77C21.72 58.68 15.99 68.51 17.5 81.7a14.55 14.55 0 005.36 9.94c3.05 2.33 6.94 3.16 11.59 2.47 8.46-1.27 17.73-8.43 26.42-20.53-1.73-1.37-3.53-2.8-5.41-4.34-8.74-7.13-14.6-13.74-18.52-19.47zm106.25-9.98c.31 0 .63 0 .94.03 4 .24 8.3 2 12.77 5.2 3.68 2.64 5.6 6.33 5.62 10.55 0 1.72-.3 3.53-.95 5.4-2.04 5.88-7.3 11.31-12.8 13.2a13.9 13.9 0 01-13.87-2.5A19.98 19.98 0 01128 60.51a30.63 30.63 0 01-.77-5.89c0-3.25 1.05-5.94 4.18-9.29 3.45-3.68 7.4-5.54 11.77-5.53zm-.1 9.76c-.86 0-1.63.33-2.22.86v-.62h-1.1c-.32 0-.45.21-.45.46v10.59c0 .3.18.45.45.45h1.1v-8.32a1.98 1.98 0 013.96 0v8.32h1.09c.3 0 .45-.16.45-.45V52.9a3.34 3.34 0 00-3.28-3.35zm-8.46-.01c-2.67 0-4.08 2.03-4.08 5.87 0 3.85 1.4 5.88 4.08 5.88 3.18 0 3.58-2.6 3.63-3.4a.39.39 0 00-.11-.29.42.42 0 00-.3-.13h-1.2l-.01.04c-.01.23-.15 2.29-2 2.29-1.64 0-2.47-1.48-2.47-4.38 0-2.91.83-4.39 2.48-4.39 1.87 0 1.99 2.2 1.99 2.3v.03h1.21c.11 0 .22-.05.3-.13a.37.37 0 00.1-.27c-.02-.58-.31-3.42-3.62-3.42zm21.5 0c-2 0-3.46 1.3-3.46 3.1 0 1.78 1.11 2.52 2.32 3.06l1.06.47c1.07.48 1.58.89 1.58 1.91 0 1.4-1.27 1.78-2.01 1.78-.65 0-1.36-.14-2.25-1.14l-.03-.04-.58.51c-.3.27-.3.49-.01.86a3.44 3.44 0 002.8 1.24c1.82 0 3.66-1.11 3.66-3.25 0-1.76-.94-2.59-2.37-3.24l-.19-.08-1.04-.46c-1-.44-1.36-.86-1.36-1.63 0-1 .73-1.68 1.83-1.68.64 0 1.17.13 1.82.8l.03.03.56-.51c.32-.3.23-.57.1-.74-.55-.64-1.42-1-2.46-1zm-4.68-.01c-.85 0-1.63.32-2.21.86v-.63h-1.1c-.33 0-.45.22-.45.47v10.59c0 .3.18.45.45.45h1.1v-8.32a1.98 1.98 0 012.78-1.81l.63-.8a.4.4 0 00.09-.26.41.41 0 00-.28-.39c-.32-.1-.66-.16-1-.16zM68.7 5.63c-2.3-1.3-4.92-1.69-8.25-1.24-5.9.8-11.32 2.6-15.79 6.96-3.8 3.72-4.36 8.48-4.07 12.95.5 4.56 2.87 9.89 7.47 16.3 6.05-2.78 15.18-7.7 21.67-16.07 3.98-5.12 4.07-8.28 3.76-11.78-.21-2.38-2.63-5.91-4.8-7.13z"/>
</svg>
