<svg width="94" height="120" viewBox="0 0 94 120" xmlns="http://www.w3.org/2000/svg">
  <g fill="none" fill-rule="evenodd">
    <path fill="#FFF" d="M0 0h94v120H0z"/>
    <path d="M83.82 104.33c-.4-.05-.83-.17-1.23-.17-2.43 0-3.66 1.14-3.66 4.36v5.17h-5.94L73 98.73h5.4v3.03h.05c.83-2.34 2.29-3.45 4.6-3.45.26 0 .51.06.77.09v5.93zm-13.71 9.35H64.6v-2.2c-1.49 2.05-2.94 2.62-5.4 2.62-3.25 0-5.36-2-5.36-6.28l.01-9.1h5.94v8.08c-.01 2.05.7 2.7 2.13 2.7 1.71.01 2.26-1.27 2.26-3.59v-7.19h5.94l-.01 14.96zm-19-11.54h-2.85l-.01 5.42c0 1.37.2 1.85 1.85 1.85h.95v4.26c-7.8.42-8.74-.12-8.74-5.29l.01-6.25h-2.11V98.7h2.2v-4.65h5.85v4.66h2.85v3.43zM38 113.66h-5.94l.02-20.56h5.94L38 113.67zm-9.1-.01h-5.51v-2.2c-1.49 2.05-2.94 2.62-5.4 2.62-3.25 0-5.36-2-5.36-6.28l.01-9.1h5.94l-.01 8.07c0 2.06.71 2.72 2.14 2.72 1.7 0 2.25-1.29 2.26-3.6v-7.2l5.94.01-.02 14.96zM94 67.98v30.36l-.45-.02c-4.8 0-8.48 3.13-8.48 8.04 0 5.02 3.7 7.77 8.5 7.77l.43-.01V120H0v-5.85l.58.02c5.42 0 9.22-3.19 9.83-8.5H3.93c-.26 1.97-1.29 3.48-3.46 3.48-.16 0-.32-.02-.47-.03V97.57l.23-.01c2.1 0 3.45 1.23 3.65 3.37h6.39c-.54-5.26-4.03-8.37-10.27-8.4V67.99h94zm-3 39.58h3v2.94h-.06a2.88 2.88 0 01-2.94-2.94zm2.78-5.62c.07 0 .15 0 .22.02v2.58h-3c0-1.6 1-2.6 2.78-2.6z" fill="#000"/>
    <path d="M24.93 77.4c.7 0 1.16.29 1.26 1.02h-.39c-.06-.5-.4-.68-.88-.68s-.73.22-.73.56c0 .88 2.09.33 2.09 1.58 0 .63-.56.95-1.33.95s-1.21-.49-1.24-1.1h.38c.12.56.41.76.98.76.55 0 .8-.29.8-.6 0-.95-2.09-.28-2.09-1.56 0-.54.42-.93 1.15-.93zm2.6-.82v.9h.61v.32h-.6v2.23c0 .33 0 .46.32.46.1 0 .2-.01.3-.04v.3c-.08.03-.25.08-.43.08-.37 0-.58-.16-.58-.64v-2.4h-.46v-.3h.46v-.91h.38zm2.57.82c.9 0 1.44.63 1.44 1.8H29c0 .7.38 1.3 1.1 1.3.5 0 .88-.28.99-.76h.42c-.19.62-.58 1.1-1.4 1.1-1.06 0-1.5-.75-1.5-1.71 0-.95.56-1.73 1.5-1.73zm5.6 0c.9 0 1.44.63 1.44 1.8H34.6c0 .7.38 1.3 1.1 1.3.5 0 .88-.28.99-.76h.42c-.19.62-.58 1.1-1.4 1.1-1.05 0-1.5-.75-1.5-1.71 0-.95.56-1.73 1.5-1.73zM13.02 76.2l1.48 4h.02l1.46-4h.65v4.54h-.43V76.7h-.01l-1.5 4.05h-.4L12.8 76.7h-.01v4.05h-.43V76.2h.66zm5.1 1.27v3.27h-.49v-3.27h.49zm2.28-.08c.4 0 .76.12 1 .46.15.23.16.48.16.75v2.14h-.38v-2.13c0-.59-.24-.88-.84-.88-.47 0-.8.3-.91.63-.08.21-.08.4-.08.62v1.76h-.38v-3.27h.38v.46c.3-.32.6-.54 1.05-.54zm2.62.08v3.27h-.49v-3.27h.49zm10.73-.08v.4c-.85-.01-1.08.62-1.08 1.35v1.6h-.38v-3.27h.38v.61h.01c.21-.52.52-.7 1.07-.7zm-3.65.34c-.67 0-1.02.53-1.1 1.15h2.13c0-.64-.35-1.15-1.03-1.15zm5.6 0c-.67 0-1.02.53-1.1 1.15h2.13c0-.64-.35-1.15-1.03-1.15zm-5.9-1.48l.7.87h-.32l-.87-.87h.49zm-11.66-.05v.56h-.53v-.56h.53zm4.9 0v.56h-.53v-.56h.53z" fill="#FFFFFE"/>
    <path d="M74.93 48.42c.52 0 1.03.08 1.47.22-.02.18-.02.35-.02.52l.02.57h-.3c-.12-.53-.55-.82-1.24-.82-1.06 0-1.71.7-1.71 1.89 0 1.36.76 2.35 1.81 2.35.64 0 1.07-.32 1.24-.92l.29.06c-.07.25-.14.68-.17 1.08-.49.2-.92.28-1.52.28l-.07.3h.15c.29 0 .47.2.47.45 0 .41-.32.7-.83.7-.16 0-.3-.03-.46-.1l.1-.3c.1.04.2.07.28.07.21 0 .36-.11.36-.3 0-.15-.08-.24-.2-.24a.28.28 0 00-.16.06l-.17-.05.15-.6a2.3 2.3 0 01-1.55-.71 2.62 2.62 0 01-.72-1.9c0-1.62 1.05-2.6 2.78-2.6zm11.8 0c.5 0 .9.1 1.25.28v1.03h-.29c-.1-.54-.44-.84-.97-.84-.46 0-.8.29-.8.7 0 .37.25.61.65.87l.64.41c.61.4.96.79.96 1.4 0 .82-.73 1.38-1.79 1.38-.43 0-.75-.06-1.27-.26-.02-.29-.07-.73-.13-1.09l.29-.04c.18.6.58.92 1.16.92.54 0 .9-.27.9-.7 0-.34-.24-.57-.58-.78l-.79-.51c-.54-.35-.86-.71-.86-1.38 0-.84.64-1.39 1.64-1.39zm-28.11.06c.51 0 .82.07 1.08.25.29.2.48.6.48 1 0 .61-.41 1.12-1.1 1.38.28.36.5.72.77 1.14.24.38.49.72.68.9.1.12.17.16.31.2v.2c-.2.05-.4.07-.62.07-.28 0-.44-.04-.6-.15-.25-.16-.52-.62-.67-.87-.25-.45-.54-.93-.81-1.33l-.12.01h-.2v1c0 .41.01.59.08.75.07.2.2.3.46.31v.22l-.18-.01H56.36v-.2c.19-.02.28-.06.37-.16a.7.7 0 00.15-.4c.02-.21.03-.35.03-.95V50.4c0-.92-.03-1.14-.08-1.36-.05-.2-.21-.28-.47-.31v-.21h.45c.4 0 .52 0 .99-.02l.82-.02zm33.88.04l-.01.66v.54h-.26c-.06-.59-.3-.74-1.2-.74l-.57.01-.03.68v1.03h.34c.8 0 1.03-.1 1.08-.52h.27l-.01.46v.3l.01.73h-.27c-.02-.43-.23-.54-1-.54h-.42l.01 1.44c0 .31.05.42.24.46.11.03.28.04.52.04.81 0 1.1-.18 1.27-.8l.3.06c-.1.53-.23.97-.3 1.11-.08.12-.15.14-.57.14l-.76-.02-1.09-.03c-.36 0-.73.01-1.09.03v-.22c.34-.03.5-.22.52-.55.02-.2.03-.4.03-.68v-2.33c0-.4-.03-.58-.09-.74-.07-.2-.2-.28-.46-.31v-.21h3.54zm-21.03 0v.2c-.2.01-.32.05-.42.23-.08.14-.1.27-.12.66-.02.68-.03 1.74-.03 2.25V53l.03.55h-.52a700.89 700.89 0 00-3.05-3.79v1.04c0 .57 0 1.13.02 1.7.02.31.05.47.12.61.08.16.2.22.41.22v.22c-.26-.02-.53-.02-.8-.02s-.54 0-.8.02v-.22c.5-.01.5-.43.52-.82l.02-.87v-1.79c0-.63-.03-.78-.15-.94-.07-.13-.17-.17-.4-.2v-.2l.4.01h.51l.4-.01c.1.16.23.31.75.95.75.9 1.41 1.66 2.04 2.45v-1.65c0-.76-.02-.95-.06-1.14-.05-.24-.2-.37-.47-.4v-.21l.53.01h.54l.53-.01zm12.75 0v.2c-.33.03-.5.23-.53.57-.01.16-.02.32-.02.65v2.09c0 .68.02.83.09 1 .06.2.2.3.46.31v.22l-.18-.01h-1.22a13 13 0 00-.44 0h-.18v-.2c.35-.04.49-.22.52-.56.02-.21.03-.35.03-.95V50.4v-.62c0-.4-.02-.58-.08-.74-.07-.2-.21-.28-.47-.31v-.21h.18l.44.01h1.22l.18-.01zm-20.57 0c.07.23.23.6.33.87l1.07 2.73c.18.46.3.73.4.9.11.19.22.28.4.32v.22l-.18-.01H63.87v-.2c.24-.02.39-.15.39-.36 0-.08-.03-.18-.1-.4l-.24-.73h-1.46l-.15.43c-.11.34-.17.6-.17.72 0 .22.1.32.34.33v.22l-.6-.02h-.16c-.35 0-.46 0-.74.02v-.22c.1-.01.15-.03.23-.1.14-.13.29-.4.51-.97l.72-1.83c.2-.49.5-1.28.7-1.92h.51zm15.9 0c.07.23.22.6.33.87l1.07 2.73c.18.46.3.73.4.9.11.19.22.28.4.32v.22l-.18-.01H79.77v-.2c.24-.02.38-.15.38-.36 0-.08-.02-.18-.1-.4l-.24-.73h-1.45l-.15.43c-.11.34-.17.6-.17.72 0 .22.1.32.34.33v.22l-.6-.02h-.16c-.35 0-.46 0-.75.02v-.22a.34.34 0 00.24-.1c.14-.13.28-.4.51-.97l.72-1.83c.2-.49.49-1.28.7-1.92h.5zM55.5 47.45c-.02.12-.02.29-.02.5v.58c0 .18 0 .25.02.4h-.34c-.01-.66-.4-.92-1.43-.92l-.64.03c-.02.63-.02 1.07-.02 2.07l.49.01c.85 0 1.1-.14 1.15-.63h.33l-.02.77.02 1.03h-.33c-.07-.55-.28-.66-1.24-.66h-.4v1.03l.01.66c.02.5.06.94.65.98v.26l-.22-.01-.6-.01h-1.4l-.22.02v-.26c.4-.04.6-.27.63-.68.02-.2.02-.33.02-.73V49c0-.48-.02-.7-.1-.9-.08-.23-.24-.34-.55-.38v-.26h4.2zm23.62 2.4c-.2.5-.47 1.17-.58 1.54h1.11l-.53-1.54zm-15.9 0c-.2.5-.47 1.17-.58 1.54h1.12l-.54-1.54zm-4.95-.96c-.15 0-.28.02-.45.06v1.88l.32.02c.62 0 1.04-.38 1.04-.97 0-.58-.39-1-.9-1zM35.73 48.42c1.55 0 2.59 1 2.59 2.5a2.7 2.7 0 01-1.4 2.45c.27.13.54.28.8.44.77.47 1.3.67 1.8.67.31 0 .57-.07.87-.22l.1.26c-.37.26-.83.4-1.35.4-.59 0-1.22-.19-1.81-.52a8.59 8.59 0 01-1.17-.8c-.25.04-.35.05-.6.05-1.52 0-2.53-1-2.53-2.5 0-1.61 1.1-2.73 2.7-2.73zm-15.35.1v.2c-.16.03-.27.07-.35.17-.09.12-.12.27-.14.57l-.02.85v1.4c0 .54-.08.86-.3 1.17-.34.5-.92.77-1.67.77a2 2 0 01-1.18-.32c-.53-.34-.74-.79-.74-1.59 0-.81.02-1.17.02-1.43 0-.39.02-.79-.05-1.17-.04-.27-.19-.38-.5-.41v-.21h.17l.44.01h1.24l.17-.01v.2c-.23.04-.35.1-.42.23-.07.1-.1.26-.1.6l-.03 1.41c0 1.3.03 1.55.27 1.83.18.2.49.35.85.35.5 0 1-.26 1.15-.76.09-.3.1-.53.11-1.23v-.93c0-.87-.02-1.13-.1-1.26-.09-.13-.2-.21-.4-.23v-.21l.52.01h.54l.52-.01zm23.53 0v.2c-.17.03-.27.07-.36.17-.08.12-.12.27-.13.57l-.02.85v1.4c0 .54-.08.86-.3 1.17-.35.5-.92.77-1.68.77a2 2 0 01-1.17-.32c-.53-.34-.74-.79-.74-1.59 0-.81.02-1.17.02-1.43 0-.39.02-.79-.05-1.17-.04-.27-.19-.38-.5-.41v-.21h.17l.44.01h1.24l.17-.01v.2c-.23.04-.35.1-.42.23-.07.1-.1.26-.1.6l-.03 1.41c0 1.3.03 1.55.26 1.83.19.2.5.35.86.35.5 0 1-.26 1.15-.76.09-.3.1-.53.11-1.23v-.93c0-.87-.02-1.13-.1-1.26-.09-.13-.2-.21-.4-.23v-.21l.52.01h.54l.52-.01zM3.38 47.4c.63 0 1 .09 1.31.3.35.26.58.73.58 1.2 0 .76-.5 1.37-1.34 1.68.35.44.62.88.94 1.38.3.47.59.87.82 1.1.13.14.2.18.38.23v.26c-.24.05-.47.07-.76.07-.33 0-.53-.05-.72-.17-.3-.2-.62-.75-.8-1.07-.32-.54-.66-1.11-1-1.6l-.13.01H2.4v.48l.01.74c.01.5.02.7.1.9.09.23.25.35.55.38v.26l-.2-.01H.64v-.25c.23-.02.34-.06.45-.18.1-.12.16-.29.18-.5.02-.25.03-.41.04-1.16v-1.72a6.6 6.6 0 00-.1-1.65c-.07-.24-.26-.34-.57-.38v-.26c.18.02.36.01.55.01.47 0 .62 0 1.19-.02l1-.03zm44.82 1.1v1.21h-.27c-.05-.59-.3-.74-1.2-.74l-.57.01c-.01.3-.02.4-.02.83v.88h.34c.79 0 1.03-.1 1.07-.52h.27l-.01.75.01.74h-.27c-.02-.43-.22-.54-1-.54h-.41v1.44c0 .31.06.42.24.46.11.03.29.04.52.04.82 0 1.1-.18 1.28-.8l.3.06c-.11.53-.23.97-.32 1.11-.06.12-.14.14-.56.14l-.76-.02c-.36-.01-.72-.03-1.09-.03l-1.09.03v-.22c.34-.03.5-.22.53-.55.02-.23.02-.47.02-.87v-2.14a2 2 0 00-.08-.74c-.07-.2-.2-.28-.47-.31v-.21h3.54zm-38.16 0v1.21h-.27c-.05-.59-.3-.74-1.2-.74l-.57.01c-.01.3-.02.4-.02.83v.88h.34c.79 0 1.03-.1 1.08-.52h.27c-.02.13-.02.38-.02.75 0 .39.01.62.02.74H9.4c-.03-.43-.23-.54-1.01-.54h-.4v1.44c0 .31.05.42.23.46.12.03.3.04.53.04.81 0 1.1-.18 1.27-.8l.3.06c-.1.53-.23.97-.31 1.11-.07.12-.15.14-.56.14l-.77-.02-1.08-.03c-.37 0-.73.01-1.1.03v-.22c.35-.03.5-.22.53-.55.02-.2.02-.4.02-.68v-2.33c0-.4-.02-.58-.08-.74-.07-.2-.2-.28-.46-.31v-.21h3.53zm18.1 0v.22c-.38 0-.55.2-.6.56 0 .11-.02.22-.02.8v1.58c0 1.05 0 1.18.1 1.28.1.08.25.12.57.12.42 0 .65-.04.84-.15.2-.11.37-.34.44-.66l.29.08c-.08.44-.23.98-.31 1.11-.07.1-.16.13-.54.13-.19 0-.38 0-.57-.02-.47-.01-.9-.03-1.4-.03-.4 0-.65.01-.9.03v-.22c.2-.01.3-.05.38-.15.13-.16.17-.35.17-.9v-2.23c0-.71 0-.84-.07-1.02-.07-.2-.22-.28-.47-.31v-.21h.19l.51.01h1.2l.2-.01zm-4.43 0c.7 0 1.33.33 1.33 1.12 0 .58-.37.97-1.08 1.15.8.16 1.22.62 1.22 1.37 0 .45-.17.8-.5 1.05-.36.27-.76.36-1.53.36l-1.23-.03c-.17 0-.48 0-.7.02h-.08v-.2c.35-.04.49-.22.52-.56.02-.21.03-.35.03-.95v-1.6c0-.7 0-1-.08-1.2-.08-.2-.22-.28-.47-.31v-.21l1.03.01 1.54-.02zm-10.54-.03c1.08 0 1.72.53 1.72 1.4 0 .83-.73 1.43-1.73 1.43h-.21l-.17-.4c.71-.04 1.1-.38 1.1-.96 0-.6-.41-1.03-.99-1.03-.09 0-.16 0-.28.03l-.02 1.4v1.32c0 1 .01 1.16.08 1.36.07.2.2.3.47.31v.22l-.19-.01H11.12v-.2c.34-.04.49-.23.52-.56.02-.21.02-.35.02-.95v-2.06c0-.4-.02-.58-.08-.74-.07-.2-.2-.28-.46-.31v-.21h.9c.38-.02.77-.04 1.15-.04zm19.09.04v.2c-.33.03-.5.23-.52.57a6.6 6.6 0 00-.02.65v1.73c0 1 0 1.16.08 1.36.07.2.2.3.46.31v.22l-.18-.01H30.24v-.2c.36-.04.5-.22.52-.56a7 7 0 00.03-.81V50.4v-.62c0-.4-.02-.58-.08-.74-.07-.2-.21-.28-.47-.31v-.21h.18l.44.01h1.22l.18-.01zm-9.21 2.5c-.13 0-.27 0-.46.02l-.01.38v.65c0 .43.02.65.07.8.06.2.24.29.56.29.64 0 1-.36 1-1 0-.7-.45-1.14-1.16-1.14zm12.53-2.08c-.93 0-1.58.77-1.58 1.85 0 1.31.77 2.35 1.76 2.35.93 0 1.6-.79 1.6-1.88 0-1.3-.79-2.32-1.78-2.32zm-12.55-.03l-.41.01-.03 1.66.33.01c.74 0 1.16-.3 1.16-.85 0-.52-.39-.83-1.05-.83zm-20.07-1c-.18 0-.35.02-.55.07v2.27c.1.02.28.03.4.03.75 0 1.25-.47 1.25-1.18 0-.7-.47-1.2-1.1-1.2zm5.75-1.2l.87.16-1.26 1.15-.35-.2.74-1.11z" fill="#1A1919"/>
    <path stroke="#1A1919" stroke-width=".33" d="M.48 44.05h91.77"/>
    <path d="M70.45 37.77c.34 0 .64.06.95.14l-.03.12a10.1 10.1 0 00-.46 2.1c0 .2.04.3.13.3.06 0 .22-.04.4-.1l.02.22c-.37.14-.73.25-.86.25s-.18-.08-.24-.44c-.55.31-.94.45-1.33.45-.44 0-.7-.23-.7-.63s.19-.94.48-1.4c.4-.62.9-1 1.64-1zm21.01 0c.47 0 .74.22.74.58 0 .68-.72 1.19-1.66 1.19h-.22a2.1 2.1 0 00-.03.35c0 .37.14.57.4.57.23 0 .52-.13.96-.4l.08.25c-.54.34-.96.5-1.33.5-.46 0-.7-.28-.7-.77 0-1.21.82-2.27 1.76-2.27zM88.74 37l-.18.87h.6l-.06.36-.62-.01-.3 1.5c-.09.4-.1.5-.1.56 0 .1.06.17.15.17.06 0 .17-.03.34-.08l.08-.03.02.22a3.2 3.2 0 01-1 .25c-.15 0-.24-.07-.24-.2s.02-.32.08-.55l.18-.75.23-1.1-.4.01.06-.23c.5-.09.67-.49.8-.91l.36-.08zm-5.08.78c.24 0 .34.06.34.2 0 .16-.05.4-.2 1a14.94 14.94 0 00-.26 1.29c0 .11.05.17.16.17.06 0 .2-.03.38-.1l.02.22a4.3 4.3 0 01-1 .25c-.15 0-.23-.08-.23-.22 0-.08.03-.25.11-.61l.08-.31c.22-.92.27-1.23.27-1.36 0-.1-.05-.17-.16-.17-.12 0-.33.08-.55.2a1.5 1.5 0 00-.5.43c-.06.11-.11.3-.2.69-.12.54-.2.9-.25 1.25-.3.02-.36.03-.65.07a30.21 30.21 0 00.52-2.39c0-.17-.05-.25-.16-.25-.06 0-.18.03-.36.1l-.02-.21c.36-.14.74-.25.92-.25.16 0 .2.1.2.44v.06c.57-.31 1.14-.5 1.54-.5zm-9.9-.78l-.19.87h.61l-.07.36-.6-.01-.32 1.5c-.08.4-.09.5-.09.56 0 .1.05.17.15.17.05 0 .16-.03.34-.08l.07-.03.02.22c-.38.15-.78.25-.99.25-.15 0-.25-.07-.25-.2s.03-.32.09-.55l.18-.75.22-1.1-.39.01.06-.23c.5-.09.66-.49.8-.91l.36-.08zm2.72.78c.46 0 .74.22.74.58 0 .68-.73 1.19-1.67 1.19h-.2c-.03.12-.04.23-.04.35 0 .37.13.57.4.57.23 0 .52-.13.95-.4l.08.25c-.54.34-.95.5-1.33.5-.45 0-.7-.28-.7-.77 0-1.21.82-2.27 1.77-2.27zm9.7 0c.1 0 .15.04.15.13s-.04.32-.17.84l-.1.43c-.2.72-.24.97-.24 1.08 0 .11.06.18.17.18.07 0 .2-.03.4-.1l.02.2c-.39.16-.8.27-1.01.27-.15 0-.25-.08-.25-.22 0-.06.03-.18.06-.34l.3-1.2c.1-.38.15-.65.15-.75 0-.1-.04-.14-.12-.14-.07 0-.14.02-.3.06l-.04.02-.02-.2c.4-.16.8-.26 1-.26zm-6.23 0c.14 0 .31.07.48.2-.12.26-.2.5-.26.75l-.25-.02c.02-.09.03-.2.03-.29 0-.13-.12-.23-.3-.23-.12 0-.23.07-.32.18-.28.32-.4.82-.55 1.64l-.14.71a6.1 6.1 0 00-.64.06l.18-.75.16-.69c.11-.46.16-.75.16-.9 0-.19-.04-.27-.13-.27a.7.7 0 00-.18.04l-.19.06-.02-.22c.36-.15.77-.27.96-.27.07 0 .12.03.13.1.02.1.04.2.04.32.34-.27.63-.42.84-.42zm-12.47 0c.14 0 .31.07.48.2-.11.26-.2.5-.26.75l-.24-.02.02-.29c0-.13-.12-.23-.3-.23-.11 0-.22.07-.32.18-.28.32-.4.82-.55 1.64l-.14.71c-.28.01-.35.02-.64.06l.18-.75.16-.69c.11-.46.17-.75.17-.9 0-.19-.05-.27-.14-.27a.7.7 0 00-.18.04l-.19.06-.02-.22c.36-.15.78-.27.96-.27.07 0 .12.03.13.1l.05.32c.33-.27.62-.42.83-.42zM65.4 35.8c-.08.33-.15.71-.2 1.07h-.22l.01-.17a.48.48 0 00-.14-.36c-.14-.13-.4-.18-.95-.18l-.55.01-.38 1.81.42.01c.82 0 .98-.07 1.13-.55h.2c-.12.48-.21.95-.28 1.43h-.2v-.09l.01-.03a.38.38 0 00-.14-.31c-.13-.1-.27-.12-.71-.12-.24 0-.3 0-.5.02l-.1.49c-.13.7-.18 1.04-.18 1.24 0 .3.13.44.43.48l-.03.16-.12-.01H61.18l.03-.15c.22-.02.35-.09.46-.23.11-.14.2-.35.3-.76.1-.42.13-.64.29-1.4l.11-.59c.12-.58.17-.93.17-1.12 0-.32-.12-.45-.44-.49l.03-.16h3.27zm4.86 2.27c-.3 0-.59.22-.84.63a3.13 3.13 0 00-.47 1.44c0 .23.1.35.29.35.27 0 .75-.24.93-.42.1-.1.17-.25.24-.53.12-.45.23-.87.3-1.36a1.1 1.1 0 00-.45-.1zm6.05-.01c-.35 0-.73.48-.91 1.2h.07c.69 0 1.2-.36 1.2-.83 0-.21-.16-.37-.36-.37zm14.98 0c-.35 0-.72.48-.9 1.2h.07c.68 0 1.2-.36 1.2-.83 0-.21-.17-.37-.37-.37zm.73-1.96l.66.16-1.33 1.05-.23-.2.9-1.01zm-5.74.12c.22 0 .36.14.36.35 0 .27-.18.46-.44.46-.23 0-.38-.14-.38-.36 0-.26.2-.45.46-.45zM56.85 39.43a.9.9 0 100-1.78.9.9 0 000 1.78M36.86 37.77c.2 0 .33.02.5.08h.97l-.08.36h-.5a.8.8 0 01.11.44c0 .68-.56 1.2-1.3 1.2-.14 0-.24-.02-.4-.06-.18.1-.24.16-.24.23 0 .08.08.12.4.22l.6.18c.58.19.87.36.87.79 0 .78-.77 1.39-1.76 1.39-.8 0-1.3-.38-1.3-1 0-.58.37-.85.97-1-.37-.14-.45-.2-.45-.33 0-.16.21-.36.66-.6a.76.76 0 01-.34-.67c0-.7.56-1.23 1.3-1.23zm-.77 2.98c-.5.12-.86.5-.86.92 0 .4.34.67.87.67.64 0 1.23-.44 1.23-.91 0-.18-.11-.3-.38-.4-.25-.1-.55-.2-.86-.28zm4.77-2.98c.34 0 .64.06.95.14l-.03.12c-.27.85-.46 1.78-.46 2.1 0 .2.04.3.13.3.06 0 .22-.04.4-.1l.02.22c-.37.14-.73.25-.86.25s-.17-.08-.24-.44c-.55.31-.94.45-1.33.45-.45 0-.7-.23-.7-.63s.19-.94.48-1.4c.4-.62.9-1 1.64-1zm3.38-2.04c.1 0 .16.04.16.12 0 .08-.03.25-.13.63-.24.98-.48 2.07-.72 3.1a3.9 3.9 0 00-.11.67c0 .11.05.17.16.17.08 0 .2-.04.4-.1l.02.21c-.37.15-.83.27-1.03.27-.14 0-.22-.08-.22-.22 0-.1.02-.23.13-.7.23-.97.48-2 .68-2.93.09-.43.13-.64.13-.7 0-.1-.04-.14-.12-.14-.08 0-.21.03-.33.07l-.01-.22a3.8 3.8 0 011-.23zm7.12 2.04c.47 0 .74.22.74.58 0 .68-.72 1.19-1.67 1.19h-.2a2.1 2.1 0 00-.04.35c0 .37.13.57.4.57.23 0 .52-.13.95-.4l.09.25c-.55.34-.96.5-1.34.5-.45 0-.7-.28-.7-.77 0-1.21.82-2.27 1.77-2.27zM48.64 37l-.18.87h.6l-.07.36-.6-.01-.32 1.5c-.08.4-.09.5-.09.56 0 .1.06.17.15.17.05 0 .16-.03.34-.08l.07-.03.03.22c-.39.15-.78.25-1 .25-.15 0-.25-.07-.25-.2s.03-.32.09-.55l.18-.75.22-1.1-.39.01.06-.23c.5-.09.67-.49.8-.91l.36-.08zm-2.57.78c.11 0 .16.04.16.13s-.04.32-.17.84l-.11.43a5.8 5.8 0 00-.23 1.08c0 .11.06.18.17.18.07 0 .2-.03.4-.1l.02.2c-.4.16-.81.27-1.02.27-.14 0-.24-.08-.24-.22a87.47 87.47 0 01.36-1.55c.1-.37.15-.64.15-.74 0-.1-.05-.14-.13-.14-.06 0-.13.02-.28.06l-.06.02-.02-.2c.4-.16.8-.26 1-.26zm-11.25-1.96c-.08.33-.16.73-.2 1.07h-.22l.01-.16c0-.4-.26-.54-1-.54-.24 0-.48 0-.72.02-.15.6-.26 1.14-.38 1.8h.27c.47 0 .67-.01.84-.04.27-.05.43-.22.52-.51h.2c-.1.43-.23 1.05-.29 1.43h-.2l.02-.13c0-.31-.2-.42-.8-.42-.36 0-.5 0-.63.02v.05l-.17.82c-.08.4-.1.67-.1.8 0 .25.13.32.62.32.93 0 1.21-.15 1.5-.78l.18.08c-.16.48-.33.87-.44 1-.07.08-.17.1-.48.1-.25 0-.52 0-.78-.02l-1.02-.01h-1.03l.03-.15c.22-.02.35-.09.46-.23.11-.14.19-.35.29-.76.1-.41.13-.58.3-1.4l.11-.59c.12-.57.16-.93.16-1.12 0-.32-.11-.45-.43-.49l.03-.16h3.35zm5.85 2.27c-.3 0-.59.22-.84.63a3.13 3.13 0 00-.47 1.44c0 .23.1.35.29.35.27 0 .75-.24.93-.42.1-.1.17-.25.24-.53.12-.45.23-.87.3-1.36a1.1 1.1 0 00-.45-.1zm-3.83-.03c-.4 0-.72.42-.72.92 0 .35.2.58.48.58.4 0 .71-.4.71-.9 0-.37-.18-.6-.47-.6zm14.35.02c-.35 0-.73.48-.91 1.2h.07c.69 0 1.2-.36 1.2-.83 0-.21-.16-.37-.36-.37zm.72-1.96l.66.16-1.32 1.05-.24-.2.9-1.01zm-5.73.12c.22 0 .36.14.36.35 0 .27-.19.46-.45.46-.22 0-.37-.14-.37-.36 0-.26.2-.45.46-.45zm-12.3-2.12l.67.16-1.34 1.05-.23-.2.9-1.01zM26.2 39.43a.9.9 0 100-1.78.9.9 0 000 1.78M8.04 35.73c.1 0 .15.04.15.12 0 .08-.03.27-.16.81l-.22.97-.12.54c.47-.27.87-.4 1.24-.4.45 0 .67.23.67.7 0 .68-.39 1.52-.93 1.98-.28.25-.62.35-1.14.35-.58 0-.92-.09-.92-.24 0-.06 0-.13.08-.44l.38-1.67.35-1.57c.08-.35.1-.54.1-.64 0-.09-.04-.14-.12-.14-.05 0-.21.04-.32.08l-.01-.22.09-.03c.4-.13.73-.2.88-.2zm4.1 2.04c.46 0 .73.22.73.58 0 .68-.72 1.19-1.67 1.19H11a2.1 2.1 0 00-.04.35c0 .37.13.57.4.57.23 0 .52-.13.96-.4l.08.25c-.55.34-.96.5-1.34.5-.45 0-.7-.28-.7-.77 0-1.21.82-2.27 1.77-2.27zm5.82-.78l-.19.87h.62l-.08.36-.6-.01-.32 1.5a3 3 0 00-.09.56c0 .1.06.17.15.17.05 0 .16-.03.34-.08l.07-.03.02.22c-.38.15-.78.25-.99.25-.15 0-.25-.07-.25-.2s.03-.32.09-.55l.18-.75.22-1.1-.39.01.06-.23c.5-.09.67-.49.8-.91l.36-.08zm2.72.78c.46 0 .74.22.74.58 0 .68-.72 1.19-1.67 1.19h-.2a2.1 2.1 0 00-.04.35c0 .37.13.57.4.57.23 0 .52-.13.96-.4l.08.25c-.55.34-.96.5-1.34.5-.45 0-.7-.28-.7-.77 0-1.21.82-2.27 1.77-2.27zm-15.28 0c.11 0 .15.04.15.13s-.03.32-.16.84l-.11.43c-.19.72-.23.97-.23 1.08 0 .11.06.18.17.18.06 0 .2-.03.4-.1l.02.2c-.4.16-.81.27-1.02.27-.15 0-.24-.08-.24-.22a100.55 100.55 0 01.36-1.55c.1-.37.15-.64.15-.74 0-.1-.05-.14-.13-.14-.07 0-.13.02-.29.06l-.05.02-.02-.2c.4-.16.8-.26 1-.26zm10.2 0a.9.9 0 01.48.2c-.12.26-.2.5-.26.75l-.24-.02.02-.29c0-.13-.12-.23-.3-.23-.12 0-.23.07-.32.18-.28.32-.4.82-.55 1.64l-.14.71a6.1 6.1 0 00-.64.06l.18-.75.16-.69c.11-.46.17-.75.17-.9 0-.19-.05-.27-.14-.27a.71.71 0 00-.18.04l-.18.06-.03-.22c.36-.15.78-.27.96-.27.07 0 .12.03.13.1l.05.32c.33-.27.62-.42.83-.42zM2.8 35.8l-.03.16c-.23.02-.35.07-.46.22-.19.24-.29.55-.56 1.97l-.1.5c-.11.6-.16.8-.2 1.08l-.02.23c0 .28.15.37.62.37.83 0 1.14-.17 1.41-.77l.2.07c-.17.49-.34.86-.43.98-.07.09-.18.12-.44.12l-1.08-.03-.7-.02-.92.02H0l.03-.15c.22-.02.35-.09.46-.23a2 2 0 00.29-.76c.1-.4.14-.65.3-1.4l.11-.59c.12-.59.16-.93.16-1.12 0-.32-.11-.45-.43-.49l.03-.16h.1l.81.01h.83l.12-.01zm5.86 2.28c-.14 0-.3.05-.5.16-.22.11-.37.23-.45.34-.1.13-.18.36-.29.85-.11.45-.16.74-.16.84 0 .14.16.22.45.22a.9.9 0 00.75-.4c.3-.43.52-1.1.52-1.58 0-.28-.11-.43-.32-.43zm3.3-.02c-.36 0-.74.48-.92 1.2h.07c.69 0 1.2-.36 1.2-.83 0-.21-.16-.37-.36-.37zm8.54 0c-.35 0-.73.48-.91 1.2h.07c.69 0 1.2-.36 1.2-.83 0-.21-.16-.37-.36-.37zm.72-1.96l.66.16-1.32 1.05-.23-.2.9-1.01zm-15.73.12c.22 0 .36.14.36.35 0 .27-.18.46-.44.46-.23 0-.37-.14-.37-.36 0-.26.19-.45.45-.45z" fill="#1A1919"/>
    <g>
      <path d="M63.15 25.84c-.42-.63.42-.84.7-1.26.21-.35-.14-.56-.2-.91-.08-.14-.36-.07-.5-.28.5-.21 1.26-.64.91-1.27-.2-.35-.56-.9-.14-1.26.5-.28 1.26-.21 1.48-.7.35-.84-.43-1.55-.85-2.25-.2-.42-.49-.7-.77-1.12-.28-.49-.63-.91-.77-1.47-.21-.56.07-1.05.07-1.62.07-1.05-.21-2.1-.5-3.15-.2-.5-.27-1.06-.48-1.55-.07-.28-.14-.56-.35-.84a.6.6 0 010-.49c.28-.21.56-.42.84-.7a.8.8 0 00-.28-1.05c-.5-.21-.42.49-.77.63h-.21c-.07-.21.07-.28.2-.42 0-.07 0-.21-.06-.21-.28 0-.56-.07-.64-.21a5.7 5.7 0 00-2.73-1.9c.28.07.56.14.84.14.5.07 1.05.07 1.47-.14.35-.14.42-.7.56-1.05.15-.28-.06-.7-.2-.91A6.52 6.52 0 0058.93 0H94v31.8H53.05a6.82 6.82 0 012.45-3.64c.28-.14.63-.21.98-.28 1.2 0 2.39.35 3.58.49a1 1 0 01.42.14c.43.07.92.07 1.34-.07.49-.14 1.05-.42 1.26-1.06.17-.5.35-1.05.07-1.54z" fill="#4D4E4C"/>
      <path d="M25.47 20.58c1.83-.07 3.65.21 5.4.77.64.21 1.2.5 1.76.84.28.21.42.42.7.56.35.22.84.22 1.2.07h.34c1.06-.28 2.18-.56 2.88-1.33 0 .07.07.07.14.07-.2.56-.2 1.2-.63 1.69 0 .07-.07.2.07.28h.14c-.07 0-.14 0-.14.07 0 .14.21 0 .28.14-.35.07-.7.14-.91.42 0 .07.14.07.21.07-.14.14-.35.07-.42.2 0 0 .07.08.14.08-.07 0-.14 0-.14.07v.2c-.21 0-.28.15-.42.22.28.21.49 0 .77 0-.77.28-1.4.7-2.18.91-.14 0 0 .21-.14.21.21.14.35-.07.57-.07-.99.56-1.97 1.06-3.02 1.69 0 0-.14.14-.14.28h-.28c-.14.07-.07.28-.21.42.35.2.77-.28.98 0 .07 0-.14.07-.28.07-.07 0-.07.14-.14.14h-.21c-.14.14-.28.2-.28.42-.14 0-.28 0-.35.14 1.54-.21 3.15-.07 4.63-.84a10.78 10.78 0 003.08-2.32s.07.07.07.14c-.2.7-.63 1.2-1.19 1.62-.42.2-.7.56-1.05.7l-.63.42c-2.6.91-5.69.49-7.93 2.24 0-.07-.07-.07-.14-.07-.14.14-.35.21-.42.35 0 .15.2.07.28.07.42-.28.84-.49 1.33-.63-.56.28-1.12.7-1.68.85-1.2.2-2.32.14-3.51 0 .7-.43 1.4-.92 2.17-1.34-.2-.14-.42-.14-.63-.14-.35.07-.77-.14-1.12 0-1.05.5-2.46.35-3.02 1.48H.05V0c3.13 0 30.58-.07 42.72 0-.84.42-2.14 1.36-2.77 2.13-.56.7-1.13 1.4-1.34 2.24a6 6 0 00-1.96 2.25c-.63 1.19-1.54 2.24-1.4 3.58.14 1.12.42 2.17.63 3.36.07.42.14.78.28 1.2.14.42 0 .9.2 1.26.15.21.08.49.36.63v.28c.07.07.07.14.2.14v.28c.57.7 1.27 1.34 1.62 2.1.14.43-.7.22-1.05.08-.7-.35-1.12-.92-1.68-1.4 0 0-.07.06-.07.13.28.5 1.33 1.13.77 1.48-.28.14-.63-.21-.91.07-.07.14 0 .28 0 .42-.42-.28-.85-.14-1.27-.28-.28-.07-.35-.63-.7-.63-.91-.21-1.75-.42-2.66-.5-1.27-.13-2.46-.35-3.72-.13-1.13.07-1.97.9-2.67 1.75v.2c.5.08.7-.34 1.12-.48.7-.14 1.34-.42 2.04-.56 1.05-.21 2.03-.5 3.02-.42.2 0 .49-.07.7 0-1.27-.07-2.39.35-3.58.7-.83.24-1.69.28-2.46.7zM35.44 30.96c.43-.1.84-.35 1.26-.49v.14c1.05-.42 1.82-1.33 2.88-1.68.07 0 .2.14.35.07.63-.56 1.33-1.2 2.24-1.05 0 .07 0 .14.07.14s.14 0 .14-.07l-.84.63c-.07.07 0 .14.07.14.35-.14.56-.42.91-.56-.07.07-.07.2-.14.28-1.33.98-2.31 2.1-3.37 3.3h-2.17c0-.07 0-.14-.07-.14-2.46.2-4.84.14-7.3.14 1.4-.21 2.8-.64 4.21-.78.56 0 1.12.07 1.76-.07" fill="#1A1919"/>
      <path d="M60.41 13.56c-.41-.1-.77 0-1.19 0-.56.14-1.05.21-1.54.42.42-.28.84-.56 1.33-.7.35-.07.7-.28 1.05-.28.42-.07.85-.2 1.2-.07.35.14.9.14.98.35.14.42-.21.84-.63 1.13-.07.14.2.2.2.35-.06.14-.27.2-.41.2-.14.08-.28.29-.43.43.15 0 0 .2.15.2-.29.36.14 1.06-.29 1.2-.49.14-1.05.14-1.6 0 .27-.07.62.07.83-.2v-.29c0-.07-.07-.07-.14-.07-.07.07-.14.07-.14.07 0-.14-.14-.28-.2-.28-.43.07-.78-.14-1.06-.42.21-.07.42-.14.63-.07.21 0 .14-.35.35-.5h.21c.42-.55 1.26-.7 1.4-1.26 0-.14-.42-.14-.7-.2" fill="#8A8B8A"/>
      <path d="M24 23.25c-.22.05-.42.2-.35.35.21.28.63-.07.98-.07-.42.14-.91.07-1.26.42.28.2.56.07.84.07 0 .14.14.14.21.2-.35.15-.63.43-.7.64-.14.35-.5.5-.7.77v.21c-.7.63-1.48 1.05-2.04 1.83.07 0 .07.07.07.14-.14.2-.42.28-.49.49 0 .07 0 .14.07.14.84-.28 1.48-.91 2.25-1.2.56-.13.98-.49 1.47-.63.35-.07.77-.2 1.12-.28 0 .07 0 .14.07.14h.56c-.07.14-.35.07-.28.14.21.21.64.14.92 0 .2-.14.42-.14.7-.14.07 0 .07-.14.07-.2.2.06.35.06.56.06 1.68-.35 3.3-.7 4.84-1.47-1.82-1.4-4.14-1.9-6.31-2.53.2 0 .42.21.63 0-.35-.28-.77-.14-1.13-.35.07 0 .22.07.29-.07-.57-.28-1.13-.28-1.69-.42a.68.68 0 00.56-.7c0-.07-.14-.07-.2-.07-.85.42-1.41 1.2-1.76 2.1.49.29 1.05.08 1.54.15-.2.2-.56.2-.84.28M21.12 20.51a9.7 9.7 0 01-2.38 1.96 21.64 21.64 0 01-2.25 3.58c0 .07.07.14.07.14 1.69-1.9 3.23-3.5 5.4-4.84.15-.07-.2.21.08.14.9-.2 1.19-1.12 1.6-1.82.57-.91 1.55-1.26 2.25-2.04 0 .07 0 .14-.07.21.07.07.14.07.21.07.29-.2.64-.14.85-.42a2.72 2.72 0 00-1.83-.07c-1.47.7-2.73 1.83-3.93 3.09" fill="#FFFFFE"/>
      <path d="M22.18 21.84c.06-.12.14-.14.2-.28 0-.07 0-.14-.06-.14-.28.07-.5.35-.56.63 0 .07.07.07.13.07a.54.54 0 00.29-.28M27.79 27.17c-.28.15-.77.15-.84.5-.07.14.2.07.35.07.49-.21 1.05 0 1.47-.42-.14-.15-.35-.07-.5-.28-.13-.08-.34.07-.48.13" fill="#FFFFFE"/>
    </g>
  </g>
</svg>
