<svg width="200" height="81" viewBox="0 0 200 81" xmlns="http://www.w3.org/2000/svg">
  <path d="M.41 27.92c2.82 8.87 18.68 13.03 24.94 14.47 8 1.74 22.43 6.93 22.43 20.11 0 12.2-10.92 18.3-23.78 18.33H23.15c-10.03-.17-18.94-5.7-22.12-11.76l1.64-3.38a26.08 26.08 0 0018.78 8.26c8.06 0 14.47-3.39 14.47-11.7 0-5.44-2.67-9.3-12.98-12.42C-2.77 43.3.4 27.92.4 27.92zM64.17 43.9v10.11c0 2.1 1.43 3.34 3.64 3.34 2.2 0 3.64-1.18 3.64-3.34v-10.1h2.98V54c0 3.54-2.67 5.95-6.62 5.95-4 0-6.62-2.4-6.62-5.95v-10.1h2.98zm93.03-.1c3.24 0 4.88 1.7 4.88 1.7l-1.28 2.3s-1.54-1.38-3.6-1.38c-1.38 0-2.46.77-2.46 1.84 0 2.77 7.65 2.1 7.65 7.09 0 2.46-1.95 4.56-5.4 4.56-3.64 0-5.59-2.15-5.59-2.15l1.65-2.06s1.74 1.65 4.05 1.65c1.23 0 2.36-.62 2.36-1.9 0-2.82-7.7-2.31-7.7-7.13 0-2.62 2.36-4.52 5.44-4.52zm42.29.26v2.46h-6.77v4.1h5.49v2.47h-5.5v4.2h7.14v2.47h-10.11v-15.7h9.75zm-117.1 0l6.15 9.03c.62.92 1.34 2.4 1.34 2.4h.05s-.16-1.48-.16-2.4v-9.03h2.93V59.7h-2.93l-6.16-8.98c-.61-.93-1.33-2.41-1.33-2.41h-.05s.15 1.48.15 2.4v8.99h-2.97V44.06h2.97zm18.52 0V59.7h-2.93V44.06h2.93zm6.36 0l3.6 10.2c.3.93.61 2.32.61 2.32h.05s.3-1.39.62-2.31l3.59-10.21h3.18l-5.95 15.65h-2.93l-5.95-15.65h3.18zm24.58 0v2.46h-6.77v4.1h5.49v2.42h-5.5v4.2h7.14v2.47h-10.1V44.06h9.74zm9.86 0c1.74 0 2.56.15 3.28.46a4.4 4.4 0 012.67 4.26c0 1.84-1.03 3.59-2.77 4.26v.05l.01.02c.06.06.25.28.55.75l3.34 5.85h-3.29l-3.23-5.85h-2.82v5.85h-2.98V44.06h5.24zm27.81 0V59.7h-2.98V44.06h2.98zm16.93 0v2.46h-5.33V59.7h-2.98V46.5h-5.34v-2.45h13.65zM24.32.4l-.35 3.44c-1.78.25-2.47 1.73-2.52 2.84v2.44h-1.64v1.08c-4.36 1.7-7.5 5.7-7.5 10.37 0 6.46 3.8 8.72 14.07 11.34 23.2 4.82 21.86 21.6 21.86 21.6-3.6-10.16-18.01-13.54-23.97-14.83-7.64-1.59-21.76-5.23-22.32-18.11C1.44 9.08 11.95.5 24.32.4zm117.33 46.1h-2.25v4.88h2.67c1.59 0 2.56-.92 2.56-2.46 0-1.49-.67-2.41-2.98-2.41zm56.71-6.46l-2.41 2.98h-2.36l1.74-2.98h3.03zm-60.45-18.88c4.77 0 8.41 3.49 8.41 7.95 0 4.62-3.64 8.21-8.41 8.21-4.78 0-8.42-3.59-8.42-8.2 0-4.47 3.6-7.96 8.42-7.96zm-53.48 0c4.78 0 8.42 3.49 8.42 7.95 0 4.62-3.64 8.21-8.42 8.21-4.77 0-8.41-3.59-8.41-8.2 0-4.47 3.59-7.96 8.41-7.96zm-17.75-.05c3.23 0 4.87 1.69 4.87 1.69l-1.28 2.31s-1.54-1.39-3.6-1.39c-1.38 0-2.46.77-2.46 1.85 0 2.77 7.65 2.1 7.65 7.08 0 2.47-1.95 4.57-5.39 4.57-3.64 0-5.6-2.15-5.6-2.15l1.65-2.06s1.75 1.64 4.05 1.64c1.24 0 2.37-.61 2.37-1.9 0-2.77-7.7-2.3-7.7-7.13 0-2.61 2.36-4.51 5.44-4.51zm36.12.3c1.75 0 2.57.16 3.29.47a4.4 4.4 0 012.67 4.26c0 1.84-1.03 3.59-2.77 4.26v.05s.2.2.56.77l3.34 5.85h-3.29l-3.23-5.85h-2.82v5.85h-2.98V21.42h5.23zm17.14 0c2.93 0 5.03 1.44 5.03 4.06 0 1.44-.71 2.72-1.95 3.33v.06c1.8.5 2.62 2.1 2.62 3.7 0 3.12-2.62 4.5-5.6 4.5h-5.9V21.43h5.8zm34.39 0l6.15 9.04c.62.92 1.34 2.4 1.34 2.4h.05s-.15-1.48-.15-2.4v-9.04h2.92v15.66h-2.92l-6.16-8.98c-.62-.93-1.34-2.42-1.34-2.42h-.05s.16 1.5.16 2.42v8.98h-2.98V21.42h2.98zm19.19 0l6.16 9.04c.61.92 1.33 2.4 1.33 2.4h.05s-.15-1.48-.15-2.4v-9.04h2.92v15.66h-2.92l-6.16-8.98c-.61-.93-1.33-2.42-1.33-2.42h-.1s.15 1.5.15 2.42v8.98h-2.98V21.42h3.03zm25.97 0v2.42h-6.78v4.1h5.44v2.47h-5.44v4.2h7.14v2.42h-10.11v-15.6h9.75zm-61.58 2.31a5.32 5.32 0 00-5.4 5.4c0 3.23 2.37 5.59 5.4 5.59a5.4 5.4 0 005.38-5.6 5.3 5.3 0 00-5.38-5.39zm-53.48 0a5.32 5.32 0 00-5.39 5.4c0 3.23 2.37 5.59 5.4 5.59a5.4 5.4 0 005.38-5.6 5.3 5.3 0 00-5.39-5.39zm35.82 6.37h-3.18v4.51h3.18c1.5 0 2.36-.92 2.36-2.25 0-1.29-.87-2.26-2.36-2.26zm-17.45-6.21h-2.25v4.87h2.67c1.59 0 2.56-.92 2.56-2.46 0-1.49-.67-2.41-2.98-2.41zm17.1-.05h-2.83v3.95h2.87c1.29 0 2-.87 2-2s-.66-1.95-2.05-1.95zm-95.37-5.47h.13c.61.07 1.13.58 1.2 1.2v6.04H23.2v-5.9c0-.72.61-1.34 1.33-1.34zm-5.7 0h.13c.62.07 1.13.58 1.2 1.2v6.04H17.5v-5.9c0-.72.61-1.34 1.33-1.34zm11.34 0h.13c.62.07 1.14.58 1.2 1.2v6.04h-2.66v-5.9c0-.72.62-1.34 1.33-1.34zM24.84.41c12.14.15 21.31 7.95 21.7 20.75v4.45h-9.9v-4.06c0-4.51-2.9-8.88-7.05-11l-.29-.13V9.13h-1.64v-2.3a3 3 0 00-2.25-2.94l-.21-.04L24.84.4zm-.31 5.13c.63 0 1.16.5 1.22 1.11l.01.12v2.36h-2.41V6.77c0-.66.51-1.23 1.18-1.23z"/>
</svg>
